<svg width="124" height="132" viewBox="0 0 124 132" fill="none" xmlns="http://www.w3.org/2000/svg">
<g filter="url(#filter0_d_6_1662)">
<path d="M25.7473 101.16H86.183L83.317 91.8871L108.143 113V22.4139C107.951 19.5665 106.671 16.9004 104.565 14.9636C102.46 13.0268 99.6893 11.9663 96.8228 12.0001H25.9264C23.0881 11.9522 20.3461 13.0242 18.2989 14.982C16.2518 16.9398 15.0658 19.6243 15 22.4496V90.7815C15.0139 92.1676 15.3038 93.5372 15.8528 94.811C16.4018 96.0849 17.1991 97.2377 18.1986 98.2029C19.198 99.168 20.3798 99.9263 21.6755 100.434C22.9712 100.941 24.3552 101.188 25.7473 101.16ZM38.25 41.2444C42.5522 37.9676 47.7748 36.1099 53.1888 35.9305L53.7619 36.4655C48.7313 37.4693 44.0294 39.6994 40.077 42.9563C46.7414 39.7007 54.0746 38.0318 61.4979 38.0813C68.9212 38.1308 76.2314 39.8974 82.8513 43.2416C78.9748 40.1626 74.4788 37.949 69.668 36.7508L70.4561 36.0018C75.78 36.2197 80.9079 38.0624 85.1441 41.2801C90.0721 50.3767 92.7494 60.5122 92.9538 70.8454C90.8235 73.1069 88.2483 74.9073 85.3884 76.1345C82.5286 77.3616 79.4455 77.9893 76.3313 77.9782C76.3313 77.9782 74.3251 75.7314 72.928 73.7698C76.6535 72.8968 79.981 70.8139 82.3856 67.8496C68.9873 76.2663 57.3086 74.9824 42.9788 69.2405C42.9336 69.2602 42.8848 69.2703 42.8355 69.2703C42.7862 69.2703 42.7374 69.2602 42.6922 69.2405C42.6922 69.2405 42.6922 69.2405 42.4414 69.2405H42.2623C41.8011 68.9288 41.3227 68.643 40.8294 68.3846C43.1529 71.3209 46.3921 73.4038 50.0362 74.3048C48.2808 76.2663 46.4538 78.5131 46.4538 78.5131C43.3514 78.6648 40.2595 78.0506 37.4532 76.7253C34.6469 75.4 32.2132 73.4046 30.3686 70.9167C30.578 60.5413 33.2805 50.3668 38.25 41.2444Z" fill="#FE056B"/>
</g>
<path d="M71.28 65.7454C72.7812 65.7454 74.2209 65.1517 75.2824 64.0949C76.3439 63.0382 76.9403 61.6049 76.9403 60.1105C76.9403 58.616 76.3439 57.1828 75.2824 56.126C74.2209 55.0693 72.7812 54.4756 71.28 54.4756C69.8612 54.5882 68.5372 55.2288 67.5716 56.2698C66.606 57.3108 66.0697 58.6757 66.0697 60.0926C66.0697 61.5096 66.606 62.8745 67.5716 63.9155C68.5372 64.9564 69.8612 65.5971 71.28 65.7097V65.7454Z" fill="#FE056B"/>
<path d="M51.7558 65.7454C53.257 65.7454 54.6967 65.1517 55.7582 64.0949C56.8197 63.0382 57.416 61.6049 57.416 60.1105C57.416 58.616 56.8197 57.1828 55.7582 56.126C54.6967 55.0693 53.257 54.4756 51.7558 54.4756C50.337 54.5882 49.0129 55.2288 48.0473 56.2698C47.0817 57.3108 46.5455 58.6757 46.5455 60.0926C46.5455 61.5096 47.0817 62.8745 48.0473 63.9155C49.0129 64.9564 50.337 65.5971 51.7558 65.7097V65.7454Z" fill="#FE056B"/>
<defs>
<filter id="filter0_d_6_1662" x="0" y="0.998535" width="123.143" height="131.001" filterUnits="userSpaceOnUse" color-interpolation-filters="sRGB">
<feFlood flood-opacity="0" result="BackgroundImageFix"/>
<feColorMatrix in="SourceAlpha" type="matrix" values="0 0 0 0 0 0 0 0 0 0 0 0 0 0 0 0 0 0 127 0" result="hardAlpha"/>
<feOffset dy="4"/>
<feGaussianBlur stdDeviation="7.5"/>
<feComposite in2="hardAlpha" operator="out"/>
<feColorMatrix type="matrix" values="0 0 0 0 1 0 0 0 0 0 0 0 0 0 0.48 0 0 0 0.5 0"/>
<feBlend mode="normal" in2="BackgroundImageFix" result="effect1_dropShadow_6_1662"/>
<feBlend mode="normal" in="SourceGraphic" in2="effect1_dropShadow_6_1662" result="shape"/>
</filter>
</defs>
</svg>
