<svg width="251" height="61"  fill="none" xmlns="http://www.w3.org/2000/svg">
<path d="M56.0176 41.0215L61.9648 35.0742L56.0176 29.1133H42.9473V41.0215H56.0176ZM66.1758 33.666C66.5677 34.0579 66.7637 34.5273 66.7637 35.0742C66.7637 35.6211 66.5677 36.0859 66.1758 36.4688L58.2324 44.4121C57.8496 44.804 57.3848 45 56.8379 45H40.9648C40.582 45 40.2402 44.8997 39.9395 44.6992C39.3014 44.2891 38.9824 43.724 38.9824 43.0039V27.1309C38.9824 26.584 39.1738 26.1191 39.5566 25.7363C39.9486 25.3444 40.418 25.1484 40.9648 25.1484H56.8379C57.3848 25.1484 57.8542 25.3444 58.2461 25.7363L66.1758 33.666ZM94.5312 33.0918V29.127H74.6934V33.0918H94.5312ZM96.5137 25.1484C97.0697 25.1484 97.5391 25.3444 97.9219 25.7363C98.3138 26.1191 98.5098 26.584 98.5098 27.1309V35.0742C98.5098 35.6211 98.3138 36.0905 97.9219 36.4824C97.5391 36.8652 97.0697 37.0566 96.5137 37.0566H90.5664V41.0215H96.5137C97.0697 41.0215 97.5391 41.2174 97.9219 41.6094C98.3138 41.9922 98.5098 42.4616 98.5098 43.0176C98.5098 43.5645 98.3138 44.0339 97.9219 44.4258C97.5391 44.8086 97.0697 45 96.5137 45H88.584C88.0371 45 87.5677 44.8086 87.1758 44.4258C86.793 44.0339 86.6016 43.5645 86.6016 43.0176V37.0566H74.6934V43.0176C74.6934 43.5645 74.4974 44.0339 74.1055 44.4258C73.7227 44.8086 73.2578 45 72.7109 45C72.1641 45 71.6947 44.8086 71.3027 44.4258C70.9199 44.0339 70.7285 43.5645 70.7285 43.0176V27.1309C70.7285 26.584 70.9199 26.1191 71.3027 25.7363C71.6947 25.3444 72.1641 25.1484 72.7109 25.1484H96.5137ZM126.291 37.0703V32.5449L116.365 29.2363L106.453 32.5449V37.0703H126.291ZM130.256 43.0176C130.256 43.5645 130.06 44.0339 129.668 44.4258C129.285 44.8086 128.82 45 128.273 45C127.727 45 127.257 44.8086 126.865 44.4258C126.482 44.0339 126.291 43.5645 126.291 43.0176V41.0352H106.453V43.0176C106.453 43.5645 106.257 44.0339 105.865 44.4258C105.473 44.8086 105.004 45 104.457 45C103.91 45 103.441 44.8086 103.049 44.4258C102.666 44.0339 102.475 43.5645 102.475 43.0176V31.1094C102.475 30.2344 102.926 29.61 103.828 29.2363L103.855 29.2227H103.869L115.736 25.2578C115.937 25.194 116.146 25.1621 116.365 25.1621C116.584 25.1621 116.794 25.194 116.994 25.2578L128.861 29.2227H128.889L128.902 29.2363C129.805 29.61 130.256 30.2344 130.256 31.1094V43.0176ZM162.002 35.0742V43.0176C162.002 43.5645 161.806 44.0339 161.414 44.4258C161.031 44.8086 160.566 45 160.02 45H140.168C139.621 45 139.156 44.804 138.773 44.4121L134.809 40.4473C134.417 40.0645 134.221 39.5996 134.221 39.0527V31.1094C134.221 30.5625 134.417 30.0931 134.809 29.7012L138.773 25.7363C139.156 25.3535 139.621 25.1621 140.168 25.1621H160.02C160.566 25.1621 161.031 25.3581 161.414 25.75C161.806 26.1328 162.002 26.5977 162.002 27.1445C162.002 27.6914 161.806 28.1608 161.414 28.5527C161.031 28.9355 160.566 29.127 160.02 29.127H141.002L138.186 31.9297V38.2188L141.002 41.0352H158.037V37.0566H148.111C147.564 37.0566 147.095 36.8652 146.703 36.4824C146.32 36.0905 146.129 35.6211 146.129 35.0742C146.129 34.5273 146.32 34.0625 146.703 33.6797C147.095 33.2878 147.564 33.0918 148.111 33.0918H160.02C160.566 33.0918 161.031 33.2878 161.414 33.6797C161.806 34.0625 162.002 34.5273 162.002 35.0742ZM189.783 38.2324V29.127H172.748L169.932 31.9297V41.0352H186.967L189.783 38.2324ZM191.766 25.1621C192.312 25.1621 192.777 25.3581 193.16 25.75C193.552 26.1328 193.748 26.5977 193.748 27.1445V39.0527C193.748 39.5996 193.552 40.0645 193.16 40.4473L189.195 44.4258C188.812 44.8086 188.343 45 187.787 45H167.949C167.402 45 166.933 44.8086 166.541 44.4258C166.158 44.0339 165.967 43.5645 165.967 43.0176V31.1094C165.967 30.5625 166.163 30.0977 166.555 29.7148L170.52 25.7363C170.902 25.3535 171.367 25.1621 171.914 25.1621H191.766ZM225.494 43.0176C225.494 43.5645 225.298 44.0339 224.906 44.4258C224.523 44.8086 224.059 45 223.512 45H219.547C218.991 45 218.521 44.8086 218.139 44.4258L202.84 29.127H201.678V43.0176C201.678 43.5645 201.482 44.0339 201.09 44.4258C200.707 44.8086 200.242 45 199.695 45C199.148 45 198.679 44.8086 198.287 44.4258C197.904 44.0339 197.713 43.5645 197.713 43.0176V27.1445C197.713 26.5977 197.904 26.1328 198.287 25.75C198.679 25.3581 199.148 25.1621 199.695 25.1621H203.66C204.216 25.1621 204.686 25.3535 205.068 25.7363L220.367 41.0352H221.529V27.1445C221.529 26.5977 221.721 26.1328 222.104 25.75C222.495 25.3581 222.965 25.1621 223.512 25.1621C224.059 25.1621 224.523 25.3581 224.906 25.75C225.298 26.1328 225.494 26.5977 225.494 27.1445V43.0176ZM48.6929 57.2212C48.6929 57.436 48.6159 57.6204 48.4619 57.7744C48.3115 57.9248 48.1289 58 47.9141 58C47.6992 58 47.5148 57.923 47.3608 57.769L43.2358 53.644L39.1108 57.769C38.9569 57.923 38.7725 58 38.5576 58C38.3428 58 38.1584 57.9248 38.0044 57.7744C37.854 57.6204 37.7788 57.436 37.7788 57.2212V50.9854C37.7788 50.7705 37.854 50.5879 38.0044 50.4375C38.1584 50.2835 38.3428 50.2065 38.5576 50.2065C38.7725 50.2065 38.9551 50.2835 39.1055 50.4375C39.2594 50.5879 39.3364 50.7705 39.3364 50.9854V55.3359L42.6826 51.9897C42.8366 51.8394 43.021 51.7642 43.2358 51.7642C43.4507 51.7642 43.6351 51.8394 43.7891 51.9897L47.1353 55.3359V50.9854C47.1353 50.7705 47.2104 50.5879 47.3608 50.4375C47.5148 50.2835 47.6992 50.2065 47.9141 50.2065C48.1289 50.2065 48.3115 50.2835 48.4619 50.4375C48.6159 50.5879 48.6929 50.7705 48.6929 50.9854V57.2212ZM60.3857 56.437C60.6006 56.437 60.7832 56.514 60.9336 56.668C61.0876 56.8184 61.1646 57.001 61.1646 57.2158C61.1646 57.4307 61.0876 57.6151 60.9336 57.769C60.7832 57.923 60.6006 58 60.3857 58H51.0293C50.8145 58 50.63 57.923 50.4761 57.769C50.3257 57.6151 50.2505 57.4307 50.2505 57.2158C50.2505 57.001 50.3257 56.8184 50.4761 56.668C50.63 56.514 50.8145 56.437 51.0293 56.437H54.9287V51.7588H51.0293C50.8145 51.7588 50.63 51.6836 50.4761 51.5332C50.3257 51.3792 50.2505 51.1948 50.2505 50.98C50.2505 50.7651 50.3257 50.5825 50.4761 50.4321C50.63 50.2782 50.8145 50.2012 51.0293 50.2012H60.3857C60.6006 50.2012 60.7832 50.2782 60.9336 50.4321C61.0876 50.5825 61.1646 50.7651 61.1646 50.98C61.1646 51.1948 61.0876 51.3792 60.9336 51.5332C60.7832 51.6836 60.6006 51.7588 60.3857 51.7588H56.4863V56.437H60.3857ZM72.8521 50.2012C73.0669 50.2012 73.2513 50.2782 73.4053 50.4321C73.5592 50.5825 73.6362 50.7651 73.6362 50.98C73.6362 51.1984 73.5592 51.3846 73.4053 51.5386C73.2513 51.689 73.0669 51.7642 72.8521 51.7642H68.958V57.2212C68.958 57.436 68.881 57.6204 68.7271 57.7744C68.5767 57.9248 68.394 58 68.1792 58C67.9608 58 67.7746 57.9248 67.6206 57.7744C67.4702 57.6204 67.395 57.436 67.395 57.2212V51.7642H63.501C63.2861 51.7642 63.1017 51.689 62.9478 51.5386C62.7974 51.3846 62.7222 51.1984 62.7222 50.98C62.7222 50.7651 62.7974 50.5825 62.9478 50.4321C63.1017 50.2782 63.2861 50.2012 63.501 50.2012H72.8521ZM86.1025 50.98V57.2158C86.1025 57.4307 86.0256 57.6151 85.8716 57.769C85.7212 57.923 85.5386 58 85.3237 58C85.1089 58 84.9245 57.923 84.7705 57.769C84.6201 57.6151 84.5449 57.4307 84.5449 57.2158V54.8794H76.7515V57.2158C76.7515 57.4307 76.6745 57.6151 76.5205 57.769C76.3701 57.923 76.1875 58 75.9727 58C75.7578 58 75.5734 57.923 75.4194 57.769C75.269 57.6151 75.1938 57.4307 75.1938 57.2158V50.98C75.1938 50.7651 75.269 50.5825 75.4194 50.4321C75.5734 50.2782 75.7578 50.2012 75.9727 50.2012C76.1875 50.2012 76.3701 50.2782 76.5205 50.4321C76.6745 50.5825 76.7515 50.7651 76.7515 50.98V53.3218H84.5449V50.98C84.5449 50.7651 84.6201 50.5825 84.7705 50.4321C84.9245 50.2782 85.1089 50.2012 85.3237 50.2012C85.5386 50.2012 85.7212 50.2764 85.8716 50.4268C86.022 50.5771 86.099 50.7616 86.1025 50.98ZM111.046 50.98V57.2158C111.046 57.4307 110.969 57.6151 110.815 57.769C110.665 57.923 110.482 58 110.267 58C110.052 58 109.868 57.923 109.714 57.769C109.563 57.6151 109.488 57.4307 109.488 57.2158V54.8794H101.695V57.2158C101.695 57.4307 101.618 57.6151 101.464 57.769C101.313 57.923 101.131 58 100.916 58C100.701 58 100.517 57.923 100.363 57.769C100.212 57.6151 100.137 57.4307 100.137 57.2158V50.98C100.137 50.7651 100.212 50.5825 100.363 50.4321C100.517 50.2782 100.701 50.2012 100.916 50.2012C101.131 50.2012 101.313 50.2782 101.464 50.4321C101.618 50.5825 101.695 50.7651 101.695 50.98V53.3218H109.488V50.98C109.488 50.7651 109.563 50.5825 109.714 50.4321C109.868 50.2782 110.052 50.2012 110.267 50.2012C110.482 50.2012 110.665 50.2764 110.815 50.4268C110.965 50.5771 111.042 50.7616 111.046 50.98ZM122.744 56.437C122.959 56.437 123.142 56.514 123.292 56.668C123.446 56.8184 123.523 57.001 123.523 57.2158C123.523 57.4307 123.446 57.6151 123.292 57.769C123.142 57.923 122.959 58 122.744 58H113.388C113.173 58 112.988 57.923 112.834 57.769C112.684 57.6151 112.609 57.4307 112.609 57.2158C112.609 57.001 112.684 56.8184 112.834 56.668C112.988 56.514 113.173 56.437 113.388 56.437H117.287V51.7588H113.388C113.173 51.7588 112.988 51.6836 112.834 51.5332C112.684 51.3792 112.609 51.1948 112.609 50.98C112.609 50.7651 112.684 50.5825 112.834 50.4321C112.988 50.2782 113.173 50.2012 113.388 50.2012H122.744C122.959 50.2012 123.142 50.2782 123.292 50.4321C123.446 50.5825 123.523 50.7651 123.523 50.98C123.523 51.1948 123.446 51.3792 123.292 51.5332C123.142 51.6836 122.959 51.7588 122.744 51.7588H118.845V56.437H122.744ZM131.773 56.437L134.109 54.1006L131.773 51.7588H126.638V56.437H131.773ZM135.764 53.5474C135.918 53.7013 135.995 53.8857 135.995 54.1006C135.995 54.3154 135.918 54.498 135.764 54.6484L132.643 57.769C132.493 57.923 132.31 58 132.095 58H125.859C125.709 58 125.575 57.9606 125.457 57.8818C125.206 57.7207 125.081 57.4987 125.081 57.2158V50.98C125.081 50.7651 125.156 50.5825 125.306 50.4321C125.46 50.2782 125.645 50.2012 125.859 50.2012H132.095C132.31 50.2012 132.494 50.2782 132.648 50.4321L135.764 53.5474ZM144.245 56.437L146.581 54.1006L144.245 51.7588H139.11V56.437H144.245ZM148.235 53.5474C148.389 53.7013 148.466 53.8857 148.466 54.1006C148.466 54.3154 148.389 54.498 148.235 54.6484L145.115 57.769C144.964 57.923 144.782 58 144.567 58H138.331C138.181 58 138.046 57.9606 137.928 57.8818C137.678 57.7207 137.552 57.4987 137.552 57.2158V50.98C137.552 50.7651 137.627 50.5825 137.778 50.4321C137.932 50.2782 138.116 50.2012 138.331 50.2012H144.567C144.782 50.2012 144.966 50.2782 145.12 50.4321L148.235 53.5474ZM160.159 56.437C160.374 56.437 160.557 56.514 160.707 56.668C160.861 56.8184 160.938 57.001 160.938 57.2158C160.938 57.4307 160.861 57.6151 160.707 57.769C160.557 57.923 160.374 58 160.159 58H150.803C150.588 58 150.403 57.923 150.25 57.769C150.099 57.6151 150.024 57.4307 150.024 57.2158V50.98C150.024 50.7651 150.099 50.5825 150.25 50.4321C150.403 50.2782 150.588 50.2012 150.803 50.2012H160.159C160.374 50.2012 160.557 50.2782 160.707 50.4321C160.861 50.5825 160.938 50.7651 160.938 50.98C160.938 51.1948 160.861 51.3792 160.707 51.5332C160.557 51.6836 160.374 51.7588 160.159 51.7588H151.582V53.3218H158.602C158.816 53.3218 158.999 53.3988 159.149 53.5527C159.303 53.7031 159.38 53.8857 159.38 54.1006C159.38 54.3154 159.303 54.4998 159.149 54.6538C158.999 54.8042 158.816 54.8794 158.602 54.8794H151.582V56.437H160.159ZM173.41 57.2212C173.41 57.436 173.333 57.6204 173.179 57.7744C173.028 57.9248 172.846 58 172.631 58H171.073C170.855 58 170.67 57.9248 170.52 57.7744L164.51 51.7642H164.053V57.2212C164.053 57.436 163.976 57.6204 163.822 57.7744C163.672 57.9248 163.489 58 163.274 58C163.06 58 162.875 57.9248 162.721 57.7744C162.571 57.6204 162.496 57.436 162.496 57.2212V50.9854C162.496 50.7705 162.571 50.5879 162.721 50.4375C162.875 50.2835 163.06 50.2065 163.274 50.2065H164.832C165.05 50.2065 165.235 50.2817 165.385 50.4321L171.396 56.4424H171.852V50.9854C171.852 50.7705 171.927 50.5879 172.078 50.4375C172.232 50.2835 172.416 50.2065 172.631 50.2065C172.846 50.2065 173.028 50.2835 173.179 50.4375C173.333 50.5879 173.41 50.7705 173.41 50.9854V57.2212ZM197.574 56.437C197.789 56.437 197.972 56.514 198.122 56.668C198.276 56.8184 198.353 57.001 198.353 57.2158C198.353 57.4307 198.276 57.6151 198.122 57.769C197.972 57.923 197.789 58 197.574 58H188.218C188.003 58 187.819 57.923 187.665 57.769C187.514 57.6151 187.439 57.4307 187.439 57.2158V50.98C187.439 50.7651 187.514 50.5825 187.665 50.4321C187.819 50.2782 188.003 50.2012 188.218 50.2012H197.574C197.789 50.2012 197.972 50.2782 198.122 50.4321C198.276 50.5825 198.353 50.7651 198.353 50.98C198.353 51.1948 198.276 51.3792 198.122 51.5332C197.972 51.6836 197.789 51.7588 197.574 51.7588H188.997V53.3218H196.017C196.231 53.3218 196.414 53.3988 196.564 53.5527C196.718 53.7031 196.795 53.8857 196.795 54.1006C196.795 54.3154 196.718 54.4998 196.564 54.6538C196.414 54.8042 196.231 54.8794 196.017 54.8794H188.997V56.437H197.574ZM210.041 50.2012C210.255 50.2012 210.44 50.2782 210.594 50.4321C210.748 50.5825 210.825 50.7651 210.825 50.98C210.825 51.1984 210.748 51.3846 210.594 51.5386C210.44 51.689 210.255 51.7642 210.041 51.7642H206.146V57.2212C206.146 57.436 206.069 57.6204 205.916 57.7744C205.765 57.9248 205.583 58 205.368 58C205.149 58 204.963 57.9248 204.809 57.7744C204.659 57.6204 204.583 57.436 204.583 57.2212V51.7642H200.689C200.475 51.7642 200.29 51.689 200.136 51.5386C199.986 51.3846 199.911 51.1984 199.911 50.98C199.911 50.7651 199.986 50.5825 200.136 50.4321C200.29 50.2782 200.475 50.2012 200.689 50.2012H210.041ZM223.291 50.98V57.2158C223.291 57.4307 223.214 57.6151 223.06 57.769C222.91 57.923 222.727 58 222.512 58C222.297 58 222.113 57.923 221.959 57.769C221.809 57.6151 221.733 57.4307 221.733 57.2158V54.8794H213.94V57.2158C213.94 57.4307 213.863 57.6151 213.709 57.769C213.559 57.923 213.376 58 213.161 58C212.946 58 212.762 57.923 212.608 57.769C212.458 57.6151 212.382 57.4307 212.382 57.2158V50.98C212.382 50.7651 212.458 50.5825 212.608 50.4321C212.762 50.2782 212.946 50.2012 213.161 50.2012C213.376 50.2012 213.559 50.2782 213.709 50.4321C213.863 50.5825 213.94 50.7651 213.94 50.98V53.3218H221.733V50.98C221.733 50.7651 221.809 50.5825 221.959 50.4321C222.113 50.2782 222.297 50.2012 222.512 50.2012C222.727 50.2012 222.91 50.2764 223.06 50.4268C223.21 50.5771 223.287 50.7616 223.291 50.98Z" fill="#FE056B"/>
<path d="M16.1086 54.977C16.6426 55.0036 17.1729 55.034 17.707 55.0531C18.2393 55.0901 18.7741 55.0388 19.2905 54.9009C19.3128 54.9009 19.272 54.6802 19.2905 54.6726C18.7741 54.8105 18.2393 54.8619 17.707 54.8248C17.1729 54.8058 16.6426 54.7753 16.1086 54.7487V54.977Z" fill="#231F20"/>
<path d="M6.46637 31.6739C7.19227 30.9628 8.00803 30.355 8.89175 29.8668C10.028 29.2487 11.2424 28.7954 12.5001 28.5199C13.3679 28.3107 14.97 28.1737 16.1234 28.0482C16.5424 28.0025 17.5326 27.9416 17.9517 28.2993C18.3707 28.6569 18.7898 29.1857 18.5525 29.6461C18.3151 30.1064 17.7477 29.7412 17.4881 30.213C17.4103 30.4369 17.4103 30.6815 17.4881 30.9054C17.5258 31.1866 17.6125 31.4585 17.744 31.7082C18.0815 32.1989 18.7676 32.2028 19.0642 32.8039C19.1977 33.0702 18.838 33.7702 18.5895 33.9909C17.8478 33.2756 17.4362 32.7734 16.3385 32.3397C15.9678 32.1386 15.5592 32.0218 15.1406 31.9973C12.5669 31.6701 9.22922 31.6853 6.46637 31.6739Z" fill="#C48DFF" stroke="black" stroke-width="0.2" stroke-miterlimit="10"/>
<path d="M1 36.422C1.39619 35.6973 1.86075 35.0143 2.38699 34.3827C4.02245 32.5642 5.65791 31.5674 8.0017 30.5782C10.2268 29.627 12.6522 29.2314 15.3557 29.1553C15.5115 29.1553 17.0653 29.2542 17.4102 29.7602C17.4881 29.8743 18.0073 30.2053 17.9331 30.601C17.9331 30.6314 17.9331 31.1641 17.6661 31.3125C17.375 31.442 17.0659 31.5242 16.7501 31.5559C16.5016 31.5331 15.9268 31.4722 15.6932 31.6625C15.5281 31.77 15.399 31.9268 15.3235 32.1118C15.2479 32.2968 15.2294 32.5012 15.2704 32.6973C15.3001 32.9294 15.8044 33.3935 16.0603 33.618C16.2458 33.7816 16.891 34.3295 17.0245 34.4474C17.4177 34.805 18.2521 34.7175 18.3782 35.2578C18.4783 35.6991 16.9875 36.3763 16.65 36.46C16.4257 35.9047 16.0364 35.436 15.5374 35.1208C15.157 34.9145 14.7362 34.7987 14.3062 34.7822C13.9804 34.7563 13.6526 34.7729 13.3309 34.8317C12.414 35.0674 11.5785 35.5586 10.9166 36.2508C10.7126 35.9921 10.5457 35.7295 10.3418 35.4899L8.38739 36.7149C8.49946 36.3287 8.55324 35.9271 8.54685 35.5241C8.5337 35.1737 8.4738 34.8268 8.36884 34.4931L5.12759 36.8519C5.29695 36.5039 5.37024 36.1151 5.33951 35.7274C5.30879 35.3398 5.17522 34.9682 4.95329 34.6529L1 36.422Z" fill="#C48DFF" stroke="black" stroke-width="0.2" stroke-miterlimit="10"/>
<path d="M5.35382 34.3485C6.45345 34.1555 7.50701 33.7487 8.45786 33.1501C9.33678 32.5604 9.80405 32.1038 10.7497 31.769C11.2523 31.6005 11.7727 31.4944 12.2999 31.4533C13.6066 31.2749 14.9028 31.0235 16.1827 30.7" fill="#C48DFF"/>
<path d="M5.35382 34.3485C6.45345 34.1555 7.50701 33.7487 8.45786 33.1501C9.33678 32.5604 9.80405 32.1038 10.7497 31.769C11.2523 31.6005 11.7727 31.4944 12.2999 31.4533C13.6066 31.2749 14.9028 31.0235 16.1827 30.7" stroke="black" stroke-width="0.2" stroke-miterlimit="10"/>
<path d="M8.6062 34.2496C9.58958 33.4906 10.6258 32.8065 11.7065 32.2028L12.4705 31.769" fill="#C48DFF"/>
<path d="M8.6062 34.2496C9.58958 33.4906 10.6258 32.8065 11.7065 32.2028L12.4705 31.769" stroke="black" stroke-width="0.2" stroke-miterlimit="10"/>
<path d="M10.6125 35.0297C11.2385 34.4129 11.8256 33.7559 12.3703 33.0627C12.599 32.7514 12.8467 32.4553 13.112 32.1763C13.381 31.9039 13.7088 31.7005 14.0688 31.5828" fill="#C48DFF"/>
<path d="M10.6125 35.0297C11.2385 34.4129 11.8256 33.7559 12.3703 33.0627C12.599 32.7514 12.8467 32.4553 13.112 32.1763C13.381 31.9039 13.7088 31.7005 14.0688 31.5828" stroke="black" stroke-width="0.2" stroke-miterlimit="10"/>
<path d="M24.0002 47.459C24.9311 47.5237 25.8805 47.6569 26.815 47.6341C27.2574 47.6315 27.6944 47.5343 28.0982 47.3487C28.4987 47.1585 28.8881 46.9416 29.2849 46.74C29.3146 46.74 29.2552 46.5269 29.2849 46.5117C28.8881 46.7134 28.4987 46.9302 28.0982 47.1204C27.6944 47.306 27.2574 47.4032 26.815 47.4058C25.8805 47.4286 24.9311 47.2955 24.0002 47.2308C24.0002 47.2308 24.0002 47.4552 24.0002 47.459Z" fill="#231F20"/>
<path d="M22.7394 51.1075C24.4927 51.3933 26.2856 51.2856 27.9944 50.7918C27.9944 50.7918 27.9944 50.5673 27.9944 50.5635C26.2869 51.0637 24.494 51.1779 22.7394 50.8983C22.7394 50.8983 22.7394 51.1227 22.7394 51.1266V51.1075Z" fill="#231F20"/>
<path d="M24.5417 43.9095C26.2922 43.9932 28.0537 43.8106 29.5742 42.8518C29.6113 42.829 29.5446 42.6426 29.5742 42.6235C28.0537 43.5823 26.2922 43.7649 24.5417 43.6812V43.9095Z" fill="#231F20"/>
<path d="M24.3452 39.8766C25.1246 39.9049 25.904 39.8178 26.6593 39.6179C27.0301 39.5304 27.401 39.4315 27.7718 39.3326C28.1241 39.2559 28.4638 39.1278 28.7805 38.9521C28.8139 38.9521 28.7509 38.7429 28.7805 38.7239C28.4754 38.8962 28.1484 39.0242 27.8089 39.1043C27.4381 39.2032 27.0672 39.306 26.6741 39.3973C25.9189 39.5971 25.1395 39.6842 24.36 39.656V39.8843L24.3452 39.8766Z" fill="#231F20"/>
<path d="M19.576 26.363C20.5077 26.3623 21.4157 26.0615 22.172 25.5032C22.2053 25.4765 22.1386 25.2977 22.172 25.2749C21.4157 25.8332 20.5077 26.134 19.576 26.1347C19.576 26.1347 19.576 26.363 19.576 26.363Z" fill="#231F20"/>
<path d="M18.3707 22.7866C18.571 22.8132 18.7712 22.8513 18.9752 22.8627C19.182 22.8741 19.3894 22.8549 19.5908 22.8056C19.9747 22.7039 20.3475 22.5624 20.7034 22.3833C20.7331 22.3833 20.6774 22.1664 20.7034 22.155C20.3475 22.3341 19.9747 22.4756 19.5908 22.5773C19.3965 22.6241 19.197 22.6446 18.9975 22.6382C18.7861 22.6382 18.5784 22.5849 18.3707 22.5583C18.3707 22.5583 18.3707 22.7828 18.3707 22.7866Z" fill="#231F20"/>
<path d="M17.744 19.4766C18.0577 19.5942 18.3954 19.6283 18.7255 19.5758C19.0556 19.5232 19.3674 19.3857 19.6316 19.176C19.6316 19.176 19.6316 19.0771 19.6316 19.0619C19.628 19.0239 19.628 18.9857 19.6316 18.9478C19.3674 19.1574 19.0556 19.2949 18.7255 19.3475C18.3954 19.4001 18.0577 19.3659 17.744 19.2483C17.7625 19.2483 17.7217 19.469 17.744 19.4766Z" fill="#231F20"/>
<path d="M17.7885 16.1439C18.023 16.2073 18.267 16.2254 18.508 16.1972C18.7476 16.1645 18.9791 16.0857 19.1903 15.9651C19.1903 15.9651 19.1903 15.8662 19.1903 15.851C19.1867 15.813 19.1867 15.7748 19.1903 15.7368C18.9791 15.8575 18.7476 15.9362 18.508 15.9689C18.267 15.9971 18.023 15.979 17.7885 15.9156C17.7885 15.9156 17.77 16.1401 17.7885 16.1439Z" fill="#231F20"/>
<path d="M18.1408 13.5072C18.3416 13.6089 18.5592 13.6708 18.7824 13.6898C19.008 13.6985 19.2331 13.6636 19.4462 13.5871C19.4499 13.5492 19.4499 13.5109 19.4462 13.473C19.4444 13.435 19.4444 13.3969 19.4462 13.3588C19.2341 13.4336 19.0102 13.4671 18.7861 13.4578C18.563 13.4387 18.3453 13.3768 18.1445 13.2751C18.1482 13.3131 18.1482 13.3513 18.1445 13.3893C18.1408 13.4272 18.1408 13.4655 18.1445 13.5034L18.1408 13.5072Z" fill="#231F20"/>
<path d="M19.3609 11.2625C19.4727 11.3957 19.6156 11.4978 19.7763 11.5592C19.9405 11.6123 20.1147 11.6241 20.2843 11.5934C20.2843 11.5934 20.2843 11.369 20.2843 11.3652C20.1147 11.3958 19.9405 11.3841 19.7763 11.3309C19.6156 11.2695 19.4727 11.1675 19.3609 11.0342V11.2244C19.3609 11.2244 19.3609 11.2548 19.3609 11.2586V11.2625Z" fill="#231F20"/>
<path d="M26.3515 49.1748C26.5887 49.7553 26.8845 50.3087 27.2341 50.826C27.4554 51.1773 27.7414 51.481 28.0759 51.7201C28.2311 51.8208 28.3997 51.8977 28.5766 51.9483C29.2033 52.1309 29.6446 51.9103 29.6891 52.0434C29.7336 52.1766 29.5334 52.3782 29.3183 52.4239C29.2256 52.4429 29.1811 52.4239 29.1106 52.4619C29.0617 52.5042 29.0219 52.5565 28.9938 52.6155C28.9657 52.6744 28.9499 52.7388 28.9474 52.8043C28.9215 53.0288 28.9994 53.1468 28.9474 53.1848C28.8955 53.2228 28.7843 53.0516 28.5766 53.0326C28.4385 53.0326 28.3057 53.0871 28.2057 53.1848C28.121 53.2764 28.0584 53.3871 28.0229 53.508C27.9875 53.6289 27.9803 53.7567 28.0018 53.881C27.8783 53.8001 27.7348 53.757 27.5883 53.757C27.4417 53.757 27.2982 53.8001 27.1748 53.881C27.1036 53.9255 27.0438 53.9868 27.0005 54.0598C26.9077 54.2501 27.1265 54.368 27.0932 54.6876C27.0689 54.837 27.0118 54.9788 26.9263 55.1023C26.9086 55.1315 26.886 55.1573 26.8595 55.1784C26.8243 55.1962 26.7856 55.2054 26.7464 55.2054C26.7072 55.2054 26.6685 55.1962 26.6333 55.1784C26.4738 55.1327 25.4837 54.7256 24.1301 54.1702" fill="url(#paint0_radial_74_637)"/>
<path d="M26.3515 49.2891C26.7223 50.1299 27.1451 51.0544 27.8349 51.6593C28.1547 51.9394 28.5539 52.1061 28.9734 52.1349C29.0995 52.1349 29.6743 52.0246 29.6892 52.1996V51.9713C29.6528 52.0666 29.5911 52.1496 29.5112 52.2108C29.4312 52.2719 29.3361 52.3089 29.2367 52.3175C29.0365 52.3632 28.9697 52.4849 28.9437 52.698C28.9258 52.8794 28.9321 53.0624 28.9623 53.242V53.029C28.9623 53.1507 28.8325 53.029 28.7917 53.0062C28.7375 52.9698 28.6764 52.9458 28.6124 52.936C28.5483 52.9261 28.483 52.9306 28.4208 52.9491C28.3158 52.9897 28.2229 53.0578 28.1514 53.1465C28.0799 53.2353 28.0321 53.3416 28.0129 53.4551C27.9832 53.6403 27.9832 53.8292 28.0129 54.0144V53.7861C27.6865 53.6301 27.0301 53.6187 26.9893 54.1171C27.0048 54.3316 27.0447 54.5436 27.108 54.7486V54.5242C27.108 54.8399 26.956 55.1938 26.6148 55.091C26.4553 55.0416 26.3033 54.9731 26.1549 54.9122C25.48 54.6421 24.8087 54.3644 24.1412 54.0904C24.1634 54.0904 24.1115 54.3073 24.1412 54.3187C24.9459 54.6497 25.747 55.0111 26.5666 55.3003C26.689 55.3421 26.8076 55.3916 26.9115 55.3003C27.0404 55.1487 27.1104 54.9536 27.108 54.7524C27.0929 54.5316 27.0531 54.3133 26.9893 54.1019V54.3263C26.9893 54.1209 27.2378 53.9839 27.4084 53.9459C27.6136 53.8983 27.8286 53.9294 28.0129 54.0334C28.0073 53.9574 28.0073 53.8811 28.0129 53.8051C28.0114 53.7245 28.0256 53.6445 28.0545 53.5695C28.0834 53.4946 28.1266 53.4263 28.1814 53.3686C28.2363 53.3109 28.3017 53.265 28.374 53.2335C28.4463 53.2019 28.524 53.1855 28.6026 53.185C28.6953 53.185 28.9178 53.3904 28.9734 53.3105C28.9734 53.2915 28.9734 53.1888 28.9734 53.1583C28.9734 52.8996 28.9512 52.6523 29.2478 52.5838C29.5445 52.5154 29.7188 52.3746 29.704 52.0816C29.6892 51.7887 29.4704 51.9333 29.2775 51.9447C28.8397 51.9772 28.4035 51.8623 28.0352 51.6175C27.223 51.0506 26.7372 49.9929 26.3552 49.0989C26.3849 49.1597 26.3292 49.2625 26.3552 49.3271L26.3515 49.2891Z" fill="black"/>
<path d="M27.0005 55.2774C27.1933 55.4905 27.7125 55.3459 28.0277 55.2774C28.1872 55.2546 28.6619 55.1861 28.8696 55.1442C28.7987 54.9968 28.7181 54.8544 28.6285 54.7181C28.4554 54.3815 28.1997 54.097 27.8868 53.8925C27.8054 53.8384 27.7141 53.8018 27.6185 53.7848C27.5229 53.7678 27.425 53.7708 27.3305 53.7936C27.2297 53.8273 27.1393 53.8875 27.0684 53.9683C26.9974 54.0491 26.9484 54.1476 26.9263 54.254C26.9205 54.4666 26.943 54.6791 26.993 54.8855C27.0227 55.0377 26.8892 55.1518 27.0005 55.2774Z" fill="white"/>
<path d="M26.9485 55.3232C27.0077 55.3711 27.0755 55.4065 27.1481 55.4274C27.2206 55.4483 27.2965 55.4543 27.3713 55.4449C27.5584 55.4351 27.7445 55.4096 27.9276 55.3688C28.2465 55.3118 28.5692 55.2775 28.8844 55.2128C28.894 55.2118 28.9032 55.2084 28.9113 55.2031C28.9195 55.1978 28.9263 55.1906 28.9313 55.1822C28.9363 55.1737 28.9394 55.1642 28.9403 55.1544C28.9411 55.1445 28.9398 55.1346 28.9363 55.1253C28.8053 54.8667 28.6553 54.6187 28.4876 54.3834C28.3453 54.1543 28.1489 53.9658 27.9165 53.8356C27.8037 53.7688 27.6758 53.7336 27.5456 53.7336C27.4154 53.7336 27.2875 53.7688 27.1748 53.8356C27.0702 53.8991 26.9848 53.9909 26.9279 54.101C26.8709 54.2111 26.8447 54.3351 26.8521 54.4595C26.8898 54.6234 26.9146 54.79 26.9263 54.9579C26.9263 55.0949 26.8262 55.1938 26.9263 55.3384C26.9708 55.3917 27.1043 55.3384 27.0561 55.2699C27.0079 55.2014 27.082 55.0188 27.0561 54.8895C27.0223 54.7249 26.9976 54.5585 26.9819 54.3911C26.9783 54.3104 26.9929 54.23 27.0245 54.1561C27.0561 54.0822 27.1039 54.0167 27.1641 53.9648C27.2244 53.9129 27.2955 53.876 27.372 53.8569C27.4484 53.8377 27.5282 53.837 27.6049 53.8546C27.8971 53.9428 28.1485 54.136 28.3133 54.3987C28.4967 54.6492 28.6593 54.9152 28.7991 55.1938L28.8473 55.1063C28.5617 55.1634 28.2725 55.1938 27.9832 55.2433C27.82 55.2699 27.6569 55.308 27.4937 55.3232C27.4175 55.3422 27.3382 55.3438 27.2613 55.328C27.1845 55.3123 27.1119 55.2794 27.0487 55.2319C27.0079 55.1824 26.8855 55.2585 26.9485 55.3232Z" fill="#231F20"/>
<path d="M28.0352 53.5807C28.0421 53.7905 28.0983 53.9956 28.1991 54.1784C28.2998 54.3612 28.442 54.5164 28.6137 54.6307C29.0142 54.5661 29.411 54.5128 29.8078 54.4519L29.6224 54.1438L29.3554 53.6758C29.2696 53.5167 29.1523 53.3777 29.0112 53.2676C28.8701 53.1576 28.7082 53.0789 28.5358 53.0366C28.434 53.0444 28.3363 53.0813 28.254 53.1431C28.1895 53.1961 28.1367 53.2625 28.099 53.3379C28.0612 53.4133 28.0395 53.496 28.0352 53.5807Z" fill="white"/>
<path d="M27.9758 53.5995C27.9748 53.7936 28.022 53.9848 28.113 54.155C28.2027 54.299 28.3141 54.4274 28.4431 54.5354C28.4754 54.5711 28.5115 54.603 28.5506 54.6305C28.5657 54.638 28.5822 54.6418 28.5988 54.6418C28.6155 54.6418 28.632 54.638 28.6471 54.6305L29.0179 54.5735L29.8041 54.4593C29.8041 54.4593 29.9005 54.4327 29.8857 54.4061C29.7448 54.1702 29.6076 53.9305 29.4666 53.6908C29.3322 53.4383 29.1336 53.2279 28.8918 53.0821C28.7869 53.0195 28.6682 52.9854 28.5469 52.9832C28.4338 52.9916 28.3249 53.031 28.2317 53.0973C28.154 53.1499 28.0899 53.2209 28.0447 53.3044C27.9995 53.3878 27.9746 53.4812 27.9721 53.5767C27.9721 53.6033 28.113 53.5767 28.113 53.5348C28.1157 53.4506 28.1376 53.3682 28.1769 53.2942C28.2162 53.2203 28.2718 53.1567 28.3393 53.1087C28.3848 53.0743 28.4387 53.0532 28.495 53.0478C28.5592 53.0525 28.6221 53.0693 28.6804 53.0973C28.7916 53.1454 28.8933 53.2137 28.9808 53.2989C29.1522 53.4618 29.2952 53.6535 29.4036 53.8658C29.5148 54.0637 29.6261 54.2463 29.7448 54.4479L29.8264 54.3985C29.4296 54.4593 29.0327 54.5126 28.6359 54.5773H28.6916C28.5311 54.4508 28.3909 54.2993 28.2762 54.1283C28.1691 53.9485 28.1126 53.7418 28.113 53.531C28.1056 53.531 27.9758 53.5538 27.9758 53.5995Z" fill="#231F20"/>
<path d="M28.9326 52.793C28.8658 53.3751 29.1848 53.6224 29.5668 53.9116C29.9376 53.8317 30.3085 53.7632 30.6793 53.6833C30.6171 53.5852 30.5625 53.4821 30.5161 53.3751C30.4393 53.1524 30.3359 52.9403 30.2083 52.7436C30.1861 52.7131 30.2083 52.7436 30.2083 52.7436C30.0894 52.6155 29.943 52.5176 29.7808 52.4575C29.6186 52.3974 29.4451 52.3768 29.2738 52.3974C29.055 52.3974 28.9363 52.7588 28.9326 52.793Z" fill="white"/>
<path d="M28.8622 52.8159C28.8337 53.0098 28.8648 53.2079 28.9512 53.3828C29.0365 53.5313 29.15 53.6607 29.285 53.7632L29.3962 53.8469C29.4286 53.8793 29.4647 53.9074 29.5038 53.9306C29.5503 53.9332 29.5968 53.9267 29.641 53.9116L29.8449 53.8698L30.672 53.7024C30.672 53.7024 30.7684 53.6757 30.7572 53.6567C30.6596 53.4786 30.5729 53.2943 30.4977 53.1051C30.4378 52.9506 30.3566 52.8058 30.2566 52.6751C30.2343 52.6485 30.1083 52.7056 30.1157 52.717V52.7398L30.2603 52.7018C30.2603 52.6752 30.1083 52.7018 30.1194 52.7398L30.2566 52.698C30.1342 52.5662 29.9839 52.4651 29.8174 52.4024C29.6508 52.3398 29.4725 52.3172 29.2961 52.3365C29.1834 52.3607 29.0807 52.4202 29.0024 52.5067C28.924 52.5933 28.8737 52.7026 28.8585 52.8197C28.8585 52.8197 28.992 52.8197 28.9994 52.7779C29.0169 52.7039 29.0457 52.6333 29.0847 52.5686C29.1127 52.5202 29.1463 52.4755 29.1848 52.4355C29.2367 52.3822 29.2701 52.3822 29.348 52.3822C29.6447 52.4011 29.9226 52.5375 30.1231 52.7627C30.1231 52.7627 30.2714 52.7627 30.264 52.717L30.1231 52.755C30.149 52.7893 30.2751 52.7284 30.2677 52.717V52.6942L30.1268 52.7398C30.2303 52.8743 30.3129 53.0245 30.3716 53.185C30.4444 53.3654 30.5286 53.5408 30.6237 53.71L30.709 53.6643C30.3382 53.7442 29.9673 53.8127 29.5965 53.8926H29.6521C29.4612 53.7769 29.2907 53.629 29.1477 53.4551C29.0231 53.2596 28.9718 53.0244 29.0031 52.7931C29.0031 52.7931 28.8659 52.7703 28.8622 52.8159Z" fill="#231F20"/>
<path d="M9.88931 43.818C10.009 43.1709 10.2618 42.5574 10.631 42.0185C10.9015 41.6505 11.2314 41.3326 11.6064 41.0788C12.2887 40.6983 12.6002 40.4168 13.316 40.5613C13.9501 40.6869 14.1578 40.9836 14.6844 41.619C15.0476 42.0833 15.3219 42.6138 15.4929 43.1827C15.6768 43.8853 15.7752 44.6086 15.7859 45.3361C15.8053 46.388 15.7334 47.4397 15.5708 48.4786C15.4743 48.9884 15.1072 50.1602 14.9774 50.613C14.8044 51.2278 14.5551 51.8172 14.2357 52.3669C14.1285 52.5173 14.004 52.654 13.8648 52.774C13.7833 52.8587 13.6938 52.9352 13.5978 53.0022L13.5459 53.0441C13.201 53.3028 12.9118 53.4474 12.9451 53.5158C13.0378 53.7061 13.876 53.4436 14.2654 53.649C14.4842 53.7669 14.7326 54.0295 15.0479 54.2273C15.3188 54.3473 15.5977 54.4477 15.8823 54.5279C16.1196 54.5887 16.8243 54.7333 16.9058 54.9882C16.9541 55.1442 16.8613 55.1594 16.8168 55.2773C16.7723 55.3953 16.6129 55.498 16.5387 55.5665C16.4776 55.6313 16.3962 55.6717 16.3088 55.6806C16.2888 55.6785 16.2697 55.6715 16.2529 55.6603C16.2362 55.649 16.2223 55.6338 16.2123 55.616C16.1261 55.4649 16.0186 55.3278 15.8934 55.2089C15.7191 55.0871 15.4484 55.4866 15.4447 55.4942C15.441 55.5018 15.4447 55.5208 15.4447 55.5208C15.3619 55.7056 15.2342 55.8654 15.0738 55.985C14.8216 56.1143 14.6288 55.9393 14.3321 55.9393C14.0354 55.9393 13.6386 55.9393 13.4643 56.1904C13.4201 56.2577 13.398 56.3377 13.4013 56.4187C13.227 56.4183 13.0565 56.4713 12.9118 56.5709C12.8132 56.639 12.7295 56.7271 12.6657 56.8299C12.6019 56.9327 12.5594 57.0478 12.5409 57.1682C12.3847 57.1668 12.2287 57.1567 12.0736 57.1378C11.8334 57.1281 11.5954 57.0872 11.3653 57.016C11.0002 56.8805 10.6712 56.659 10.4048 56.3693C9.87705 55.6619 9.428 54.8962 9.06602 54.0865C8.56536 53.0327 8.07213 52.3516 7.61227 51.3092C7.42685 50.8945 7.13016 49.8559 7.0152 49.4754C6.76673 48.6803 6.78156 46.66 6.84461 46.291C7.13758 44.5143 7.63452 43.7305 8.30206 42.3837C8.76235 41.392 9.36625 40.4774 10.0933 39.6711C10.7117 39.0633 11.4005 38.5356 12.1441 38.0998C13.0146 37.561 13.9148 37.0745 14.8402 36.6426C15.4929 36.3269 16.2976 35.8817 16.7575 35.6725C17.0471 35.5346 17.326 35.3743 17.5919 35.1931C18.2557 34.6795 18.4931 33.561 18.7045 33.0321C18.9732 32.4296 19.2024 31.8094 19.3906 31.1755C19.6316 29.9885 19.1384 28.7786 18.8565 27.8579C18.3559 26.2106 18.0444 25.4611 17.5326 23.7566C17.247 22.8093 16.7909 20.9298 16.5609 19.7847C16.3136 18.6975 16.1622 17.5897 16.1085 16.4747C16.153 15.5502 16.6017 14.367 16.2902 13.8305C16.179 13.6479 15.9824 13.9066 15.886 13.8648C15.9342 13.1381 16.5016 11.8826 16.7464 11.3804C17.0431 10.7793 18.2112 9.70259 18.1111 9.32214C18.0592 9.10908 16.8576 9.74825 16.7983 9.85097C16.9986 9.25365 17.8404 8.22262 18.1482 7.8688C18.6377 7.30192 20.403 6.40024 20.4401 6.01217C20.4623 5.7801 18.0258 6.50677 17.9554 6.55622C18.3855 5.99315 19.6761 5.41486 20.1508 5.2018C20.733 4.9507 22.5799 5.02679 22.6281 4.6996C22.6763 4.37241 21.1855 4.31915 21.2114 3.93869C21.2374 3.63052 22.1386 3.97674 22.2498 3.64574C22.3611 3.31474 21.2708 2.93809 21.23 2.90385C20.9296 2.63373 19.0457 2.33697 19.1198 2.01739C19.194 1.69781 20.1397 1.57987 20.6032 1.54563C21.1725 1.46739 21.7509 1.49835 22.3092 1.63694C23.4217 2.08968 24.0448 3.85119 24.5714 3.88543C24.9422 3.91206 24.5046 3.03701 24.69 2.93048C24.7716 2.88483 24.8384 3.11691 24.8384 3.16637C24.8384 3.64194 26.0844 4.38002 26.1586 4.41807C26.5962 4.62351 27.1822 4.71863 27.3416 4.54742C27.5011 4.37622 26.9708 4.25447 26.9374 4.14414C26.9374 4.12511 26.8818 4.10229 26.8669 4.07946L26.7483 3.96913C26.548 3.80934 26.0696 3.29192 25.9584 3.18159C25.6818 2.86791 25.4336 2.52919 25.2167 2.16957C25.0652 1.88719 24.941 1.59029 24.8458 1.28311C24.8124 1.13854 24.5454 0.967335 24.7049 1.00538C25.3798 1.16898 26.8632 2.47394 27.5827 2.92668C27.731 3.01799 28.1983 3.28431 28.3244 3.36801C28.6174 3.54682 28.9771 3.54302 29.2033 3.68759C30.149 4.29632 30.2788 5.91706 31.3617 6.76167C31.7325 7.05843 32.1813 7.16115 32.452 7.52258C32.6461 7.84676 32.7641 8.21272 32.7969 8.59166C32.8312 9.10436 32.7785 9.61928 32.6411 10.1135C32.3185 11.5059 32.782 12.5522 33.2197 13.7773C33.7055 14.8654 34.0949 15.8393 35.137 16.6573C35.1852 16.6954 36.0307 17.2927 36.2161 17.4639C36.4016 17.6351 36.8837 18.0232 36.854 18.259C36.7947 18.7726 36.3571 18.7536 36.1939 19.2368C36.0604 19.6173 36.3089 19.8265 36.3237 20.3782C36.2433 20.9919 36.0386 21.5815 35.7229 22.1092C35.6636 22.2158 35.1481 23.1555 34.8588 23.3381C34.6771 23.4484 34.6103 23.5436 34.488 23.536C34.3656 23.5283 34.2543 23.4561 33.661 22.5354L33.5386 22.3109C33.5386 22.3109 33.1677 21.744 32.7969 21.2114C32.2554 20.4505 31.8141 20.3515 30.7053 19.1493C30.3344 18.727 30.1193 18.5139 29.9005 18.2438C29.3962 17.6123 29.2738 17.3231 28.8547 17.1024C28.5847 16.9482 28.2843 16.8585 27.9758 16.8399C28.2839 16.8565 28.5849 16.9408 28.8584 17.0872C29.2292 17.3 29.5358 17.6133 29.7448 17.9927C30.7757 19.6781 32.7598 20.7853 33.4533 22.1169C33.547 22.3174 33.6549 22.5107 33.7759 22.6951C34.1468 23.2392 34.4843 23.4332 34.4175 23.6006C34.3953 23.6615 34.3285 23.6919 34.1987 23.73C33.6647 23.8822 33.1455 24.0496 32.8896 23.768C32.6337 23.4865 32.782 23.1136 32.5707 23.0261C32.3593 22.9386 32.2925 23.1365 31.9365 23.243C31.7004 23.2957 31.4583 23.3149 31.217 23.3001C30.8462 23.3229 28.8584 23.4332 28.7546 23.1631C28.6507 22.893 29.4963 22.9691 29.4963 22.6913C29.4963 22.5354 29.2701 22.5087 29.1551 22.5011C29.0423 22.4941 28.9294 22.5136 28.825 22.5582C28.5988 22.6343 28.3504 22.7104 28.113 22.7636C28.2264 22.6997 28.3255 22.6121 28.404 22.5067C28.4825 22.4012 28.5388 22.2801 28.5692 22.1511C28.647 21.7706 28.3355 21.5956 27.9795 21.6489C28.0184 21.4473 28.0321 21.2415 28.0203 21.0364C28.0332 20.8504 28.008 20.6638 27.9461 20.4885C27.6754 19.7885 26.3181 18.921 25.8656 18.2058C25.4132 17.4905 25.8137 16.5888 25.2649 15.9649C24.716 15.3409 23.7555 15.5388 23.0657 15.0708C22.7378 14.8326 22.4634 14.5252 22.261 14.1691C22.5931 14.4771 23.0031 14.6829 23.444 14.7626C23.6665 14.8045 24.2376 14.8197 24.2302 14.6599C24.2302 14.4278 23.0805 14.2795 22.7468 13.9333C22.489 13.6836 22.2866 13.38 22.1534 13.043C22.4501 13.3055 22.8951 13.686 23.3105 13.5528C23.4551 13.5071 23.4922 13.2713 23.5144 13.1723C23.6799 12.6172 23.8883 12.0766 24.1375 11.5554C24.5083 10.9505 24.6752 10.9809 24.8792 10.3608C24.9986 10.0109 25.0064 9.63118 24.9014 9.27648C24.7441 8.95739 24.5289 8.67202 24.2673 8.43568C23.6628 7.97913 22.0088 9.15474 21.8753 9.28409C21.0851 10.0576 20.5344 11.0526 20.2917 12.1451C19.9468 13.4919 19.9765 13.7621 19.9839 15.1659C20.0799 16.3964 20.3126 17.6116 20.6774 18.7879C20.8814 19.5221 21.8271 21.7554 22.1052 22.4098C22.6726 23.7566 24.2079 27.2644 24.4824 27.8123C25.6728 30.2015 26.4256 31.0423 27.3231 32.7582C28.6545 35.292 29.856 37.5177 30.2565 40.3673C30.3515 41.1636 30.3874 41.9661 30.3641 42.768C30.3381 44.9328 29.5742 47.5503 28.8807 49.4221C28.6858 49.9429 28.4604 50.4511 28.2057 50.944C27.5271 52.4011 25.3872 53.3637 24.4972 53.8278C22.1979 55.011 19.0753 55.2393 17.2211 54.8931C15.5745 54.5849 15.949 54.5583 15.0961 54.0675C14.8635 53.9444 14.6509 53.7853 14.4656 53.5957C14.351 53.5041 14.2266 53.4263 14.0948 53.3637C13.8631 53.2496 13.61 53.1886 13.3531 53.1848" fill="url(#paint1_radial_74_637)"/>
<path d="M9.88931 43.818C10.009 43.1709 10.2618 42.5574 10.631 42.0185C10.9015 41.6505 11.2314 41.3326 11.6064 41.0788C12.2887 40.6983 12.6002 40.4168 13.316 40.5613C13.9501 40.6869 14.1578 40.9836 14.6844 41.619C15.0476 42.0833 15.3219 42.6138 15.4929 43.1827C15.6768 43.8853 15.7752 44.6086 15.7859 45.3361C15.8053 46.388 15.7334 47.4397 15.5708 48.4786C15.4743 48.9884 15.1072 50.1602 14.9774 50.613C14.8044 51.2278 14.5551 51.8172 14.2357 52.3669C14.1285 52.5173 14.004 52.654 13.8648 52.774C13.7833 52.8587 13.6938 52.9352 13.5978 53.0022L13.5459 53.0441C13.201 53.3028 12.9118 53.4474 12.9451 53.5158C13.0378 53.7061 13.876 53.4436 14.2654 53.649C14.4842 53.7669 14.7326 54.0295 15.0479 54.2273C15.3188 54.3473 15.5977 54.4477 15.8823 54.5279C16.1196 54.5887 16.8243 54.7333 16.9058 54.9882C16.9541 55.1442 16.8613 55.1594 16.8168 55.2773C16.7723 55.3953 16.6129 55.498 16.5387 55.5665C16.4776 55.6313 16.3962 55.6717 16.3088 55.6806C16.2888 55.6785 16.2697 55.6715 16.2529 55.6603C16.2362 55.649 16.2223 55.6338 16.2123 55.616C16.1261 55.4649 16.0186 55.3278 15.8934 55.2089C15.7191 55.0871 15.4484 55.4866 15.4447 55.4942C15.441 55.5018 15.4447 55.5208 15.4447 55.5208C15.3619 55.7056 15.2342 55.8654 15.0738 55.985C14.8216 56.1143 14.6288 55.9393 14.3321 55.9393C14.0354 55.9393 13.6386 55.9393 13.4643 56.1904C13.4201 56.2577 13.398 56.3377 13.4013 56.4187C13.227 56.4183 13.0565 56.4713 12.9118 56.5709C12.8132 56.639 12.7295 56.7271 12.6657 56.8299C12.6019 56.9327 12.5594 57.0478 12.5409 57.1682C12.3847 57.1668 12.2287 57.1567 12.0736 57.1378C11.8334 57.1281 11.5954 57.0872 11.3653 57.016C11.0002 56.8805 10.6712 56.659 10.4048 56.3693C9.87705 55.6619 9.428 54.8962 9.06602 54.0865C8.56536 53.0327 8.07213 52.3516 7.61227 51.3092C7.42685 50.8945 7.13016 49.8559 7.0152 49.4754C6.76673 48.6803 6.78156 46.66 6.84461 46.291C7.13758 44.5143 7.63452 43.7305 8.30206 42.3837C8.76235 41.392 9.36625 40.4774 10.0933 39.6711C10.7117 39.0633 11.4005 38.5356 12.1441 38.0998C13.0146 37.561 13.9148 37.0745 14.8402 36.6426C15.4929 36.3269 16.2976 35.8817 16.7575 35.6725C17.0471 35.5346 17.326 35.3743 17.5919 35.1931C18.2557 34.6795 18.4931 33.561 18.7045 33.0321C18.9732 32.4296 19.2024 31.8094 19.3906 31.1755C19.6316 29.9885 19.1384 28.7786 18.8565 27.8579C18.3559 26.2106 18.0444 25.4611 17.5326 23.7566C17.247 22.8093 16.7909 20.9298 16.5609 19.7847C16.3136 18.6975 16.1622 17.5897 16.1085 16.4747C16.153 15.5502 16.6017 14.367 16.2902 13.8305C16.179 13.6479 15.9824 13.9066 15.886 13.8648C15.9342 13.1381 16.5016 11.8826 16.7464 11.3804C17.0431 10.7793 18.2112 9.70259 18.1111 9.32214C18.0592 9.10908 16.8576 9.74825 16.7983 9.85097C16.9986 9.25365 17.8404 8.22262 18.1482 7.8688C18.6377 7.30192 20.403 6.40024 20.4401 6.01217C20.4623 5.7801 18.0258 6.50677 17.9554 6.55622C18.3855 5.99315 19.6761 5.41486 20.1508 5.2018C20.733 4.9507 22.5799 5.02679 22.6281 4.6996C22.6763 4.37241 21.1855 4.31915 21.2114 3.93869C21.2374 3.63052 22.1386 3.97674 22.2498 3.64574C22.3611 3.31474 21.2708 2.93809 21.23 2.90385C20.9296 2.63373 19.0457 2.33697 19.1198 2.01739C19.194 1.69781 20.1397 1.57987 20.6032 1.54563C21.1725 1.46739 21.7509 1.49835 22.3092 1.63694C23.4217 2.08968 24.0448 3.85119 24.5714 3.88543C24.9422 3.91206 24.5046 3.03701 24.69 2.93048C24.7716 2.88483 24.8384 3.11691 24.8384 3.16637C24.8384 3.64194 26.0844 4.38002 26.1586 4.41807C26.5962 4.62351 27.1822 4.71863 27.3416 4.54742C27.5011 4.37622 26.9708 4.25447 26.9374 4.14414C26.9374 4.12511 26.8818 4.10229 26.8669 4.07946L26.7483 3.96913C26.548 3.80934 26.0696 3.29192 25.9584 3.18159C25.6818 2.86791 25.4336 2.52919 25.2166 2.16957C25.0652 1.88719 24.941 1.59029 24.8458 1.28311C24.8124 1.13854 24.5454 0.967335 24.7049 1.00538C25.3798 1.16898 26.8632 2.47394 27.5827 2.92668C27.731 3.01799 28.1983 3.28431 28.3244 3.36801C28.6174 3.54682 28.9771 3.54302 29.2033 3.68759C30.149 4.29632 30.2788 5.91706 31.3617 6.76167C31.7325 7.05843 32.1813 7.16115 32.452 7.52258C32.6461 7.84676 32.7641 8.21272 32.7969 8.59166C32.8312 9.10436 32.7785 9.61928 32.6411 10.1135C32.3185 11.506 32.782 12.5522 33.2197 13.7773C33.7055 14.8654 34.0949 15.8393 35.137 16.6573C35.1852 16.6954 36.0307 17.2927 36.2161 17.4639C36.4016 17.6351 36.8837 18.0232 36.854 18.259C36.7947 18.7726 36.3571 18.7536 36.1939 19.2368C36.0604 19.6173 36.3089 19.8265 36.3237 20.3782C36.2433 20.9919 36.0386 21.5815 35.7229 22.1092C35.6636 22.2158 35.1481 23.1555 34.8588 23.3381C34.6771 23.4484 34.6103 23.5436 34.488 23.536C34.3656 23.5283 34.2543 23.4561 33.661 22.5354L33.5386 22.3109C33.5386 22.3109 33.1677 21.744 32.7969 21.2114C32.2554 20.4505 31.8141 20.3515 30.7053 19.1493C30.3344 18.727 30.1193 18.5139 29.9005 18.2438C29.3962 17.6123 29.2738 17.3231 28.8547 17.1025C28.5847 16.9482 28.2843 16.8585 27.9758 16.8399C28.2839 16.8565 28.5849 16.9408 28.8584 17.0872C29.2292 17.3 29.5358 17.6133 29.7448 17.9927C30.7757 19.6781 32.7598 20.7853 33.4533 22.1169C33.547 22.3174 33.6549 22.5107 33.7759 22.6951C34.1468 23.2392 34.4843 23.4332 34.4175 23.6006C34.3953 23.6615 34.3285 23.6919 34.1987 23.73C33.6647 23.8822 33.1455 24.0496 32.8896 23.768C32.6337 23.4865 32.782 23.1136 32.5707 23.0261C32.3593 22.9386 32.2925 23.1365 31.9365 23.243C31.7004 23.2957 31.4583 23.3149 31.217 23.3001C30.8462 23.3229 28.8584 23.4332 28.7546 23.1631C28.6507 22.893 29.4963 22.9691 29.4963 22.6913C29.4963 22.5354 29.2701 22.5087 29.1551 22.5011C29.0423 22.4941 28.9294 22.5136 28.825 22.5582C28.5988 22.6343 28.3504 22.7104 28.113 22.7636C28.2264 22.6997 28.3255 22.6121 28.404 22.5067C28.4825 22.4012 28.5388 22.2801 28.5692 22.1511C28.647 21.7706 28.3355 21.5956 27.9795 21.6489C28.0184 21.4473 28.0321 21.2415 28.0203 21.0364C28.0332 20.8504 28.008 20.6638 27.9461 20.4885C27.6754 19.7885 26.3181 18.921 25.8656 18.2058C25.4132 17.4905 25.8137 16.5888 25.2649 15.9649C24.716 15.3409 23.7555 15.5388 23.0657 15.0708C22.7378 14.8326 22.4634 14.5252 22.261 14.1691C22.5931 14.4771 23.0031 14.6829 23.444 14.7626C23.6665 14.8045 24.2376 14.8197 24.2302 14.6599C24.2302 14.4278 23.0805 14.2795 22.7468 13.9333C22.489 13.6836 22.2866 13.38 22.1534 13.043C22.4501 13.3055 22.8951 13.686 23.3105 13.5528C23.4551 13.5071 23.4922 13.2713 23.5144 13.1723C23.6799 12.6172 23.8883 12.0766 24.1375 11.5554C24.5083 10.9505 24.6752 10.9809 24.8792 10.3608C24.9986 10.0109 25.0064 9.63118 24.9014 9.27648C24.7441 8.95739 24.5289 8.67202 24.2673 8.43567C23.6628 7.97913 22.0088 9.15474 21.8753 9.28409C21.0851 10.0576 20.5344 11.0526 20.2917 12.1451C19.9468 13.4919 19.9765 13.7621 19.9839 15.1659C20.0799 16.3964 20.3126 17.6116 20.6774 18.7879C20.8814 19.5221 21.8271 21.7554 22.1052 22.4098C22.6726 23.7566 24.2079 27.2644 24.4824 27.8123C25.6728 30.2015 26.4256 31.0423 27.3231 32.7582C28.6545 35.292 29.856 37.5177 30.2565 40.3673C30.3515 41.1636 30.3874 41.9661 30.3641 42.768C30.3381 44.9328 29.5742 47.5503 28.8807 49.4221C28.6858 49.9429 28.4604 50.4511 28.2057 50.944C27.5271 52.4011 25.3872 53.3637 24.4972 53.8278C22.1979 55.011 19.0753 55.2393 17.2211 54.8931C15.5745 54.5849 15.949 54.5583 15.0961 54.0675C14.8635 53.9444 14.6509 53.7853 14.4656 53.5957C14.351 53.5041 14.2266 53.4263 14.0948 53.3637C13.8631 53.2496 13.61 53.1886 13.3531 53.1848" stroke="black" stroke-width="0.25" stroke-miterlimit="10"/>
<path d="M16.5536 56.3236C16.6611 56.3578 16.7279 56.2855 16.854 56.2779C17.1017 56.2681 17.3472 56.3301 17.5623 56.4567C17.5675 56.1787 17.5052 55.9037 17.3808 55.6567C17.2565 55.4096 17.0742 55.1981 16.8502 55.0414C16.6685 54.9197 16.2013 54.7181 16.0195 54.973C15.7377 55.3839 16.1085 56.1752 16.5536 56.3236Z" fill="white" stroke="black" stroke-width="0.25" stroke-miterlimit="10"/>
<path d="M12.5855 57.2595C12.6077 57.3698 13.1455 57.4801 13.3791 57.4801C13.52 57.4801 14.1208 57.5829 14.3396 57.5753C14.3038 57.4402 14.2475 57.3118 14.1727 57.1948C14.0915 57.0757 14.0023 56.9626 13.9057 56.8562C13.8019 56.7307 13.5348 56.3959 13.4236 56.3959C13.3109 56.3866 13.1976 56.4026 13.0916 56.4428C12.9856 56.483 12.8893 56.5464 12.8096 56.6286C12.7298 56.7107 12.6685 56.8097 12.6298 56.9187C12.5911 57.0276 12.576 57.1439 12.5855 57.2595Z" fill="white" stroke="black" stroke-width="0.25" stroke-miterlimit="10"/>
<path d="M13.5126 56.2667C13.5126 56.3694 13.6869 56.5026 13.7685 56.5825C13.85 56.6624 14.0206 56.9363 14.2024 57.0314C14.3941 57.1007 14.5961 57.1354 14.7994 57.1341L15.3557 57.2178C15.2773 56.9069 15.1521 56.6104 14.9849 56.339C14.9334 56.2435 14.8626 56.1604 14.7772 56.0955C14.6645 56.0032 14.5326 55.939 14.3916 55.908C14.2507 55.8769 14.1046 55.8799 13.965 55.9167C13.7685 55.9585 13.5348 56.0498 13.5126 56.2667Z" fill="white" stroke="black" stroke-width="0.25" stroke-miterlimit="10"/>
<path d="M14.996 56.198C14.9774 56.3616 15.148 56.5138 15.2259 56.5784C15.4253 56.6939 15.6496 56.7567 15.8786 56.7611C16.064 56.7953 16.3014 56.8219 16.4979 56.8486C16.4852 56.6808 16.4604 56.5142 16.4238 56.3502C16.3741 56.1686 16.3096 55.9917 16.2309 55.8213C16.1159 55.6007 16.064 55.323 15.8601 55.2811C15.6561 55.2393 15.6079 55.4371 15.4892 55.555C15.3705 55.673 15.2741 55.8518 15.1851 55.9355C15.1033 56.007 15.0386 56.0968 14.996 56.198Z" fill="white" stroke="black" stroke-width="0.25" stroke-miterlimit="10"/>
<path d="M32.8711 19.4728C32.9416 19.6934 33.0157 19.9103 33.1047 20.1233V19.8951C32.7747 19.6331 32.4636 19.3471 32.1739 19.039V19.2673C32.2926 19.1608 32.4149 18.9515 32.5967 18.982C32.7784 19.0124 32.8192 19.3092 32.8711 19.4728C32.8674 19.4348 32.8674 19.3966 32.8711 19.3586C32.8767 19.3208 32.8767 19.2823 32.8711 19.2445C32.8192 19.0809 32.8043 18.7917 32.5967 18.7537C32.389 18.7156 32.2926 18.9325 32.1739 19.039C32.1739 19.039 32.1739 19.138 32.1739 19.1532V19.2331C32.1739 19.2331 32.1739 19.2635 32.1739 19.2673C32.4636 19.5753 32.7747 19.8614 33.1047 20.1233C33.101 20.0854 33.101 20.0471 33.1047 20.0092C33.1103 19.9714 33.1103 19.9329 33.1047 19.8951C33.0157 19.682 32.9416 19.4651 32.8711 19.2445C32.8767 19.2823 32.8767 19.3208 32.8711 19.3586C32.8655 19.3964 32.8655 19.4349 32.8711 19.4728Z" fill="#231F20"/>
<path d="M31.7993 18.5331C31.835 18.4288 31.8964 18.3358 31.9773 18.2629C32.0645 18.1907 32.17 18.1458 32.2814 18.1336C32.3908 18.1294 32.4997 18.15 32.6004 18.1941C32.7011 18.2382 32.791 18.3046 32.8637 18.3885C32.6948 18.269 32.4939 18.2065 32.2888 18.2097C32.1893 18.217 32.0933 18.2511 32.0107 18.3086C31.9294 18.3718 31.8581 18.4475 31.7993 18.5331Z" fill="#231F20"/>
<path d="M35.5969 18.0005C35.5984 17.9249 35.6177 17.8508 35.6532 17.7845C35.6888 17.7183 35.7394 17.6618 35.8008 17.62C35.8653 17.5755 35.9419 17.5529 36.0196 17.5554C36.0942 17.5589 36.1668 17.5811 36.231 17.62C36.0984 17.5883 35.959 17.6101 35.8416 17.6809C35.7306 17.7598 35.6453 17.8711 35.5969 18.0005Z" fill="#231F20"/>
<path d="M32.9675 16.1323C33.156 16.03 33.3661 15.9766 33.5794 15.9766C33.7927 15.9766 34.0027 16.03 34.1913 16.1323C33.9908 16.0829 33.7855 16.0574 33.5794 16.0562C33.3732 16.057 33.1678 16.0825 32.9675 16.1323Z" fill="#231F20"/>
<path d="M32.1108 14.8275C32.5599 14.6799 33.0451 14.6974 33.483 14.877C33.2566 14.8341 33.0271 14.81 32.7969 14.8047C32.5707 14.7933 32.3408 14.8161 32.1108 14.8275Z" fill="#231F20"/>
<path d="M31.2097 13.9105C31.7706 13.6094 32.4241 13.5452 33.0305 13.7317C32.4183 13.646 31.795 13.7072 31.2097 13.9105Z" fill="#231F20"/>
<path d="M24.1004 8.34438C23.5224 7.78541 22.7749 7.44696 21.9828 7.38563C21.5734 7.36148 21.1632 7.41698 20.7739 7.54923C19.932 7.83076 19.398 8.49276 18.6971 9.63412C18.4857 9.98034 17.6216 11.719 17.5178 12.7577C17.4002 13.7534 17.3543 14.7568 17.3806 15.7595C17.4584 16.7372 17.5475 18.1639 17.7143 19.1531C17.8367 19.895 17.9146 20.4619 18.0852 21.1657C18.2669 21.9837 18.749 23.3419 18.9641 24.0191C19.3016 25.073 19.6836 26.397 19.984 27.116C20.4957 28.3868 20.7998 28.7254 21.3005 29.8667C21.6342 30.6276 22.0422 31.6206 22.3722 32.4805C22.8247 33.5914 23.1622 34.0441 23.6331 35.4176C24.0099 36.584 24.2586 37.7899 24.3748 39.0129C24.4158 40.4556 24.3464 41.8994 24.1672 43.3311C24.0797 44.3102 23.9236 45.2816 23.6999 46.2377C23.2549 47.5313 22.6726 48.2694 22.5614 49.4069C22.543 50.1915 22.6923 50.9707 22.999 51.6897C23.0786 51.924 23.1702 52.1538 23.2734 52.3783C23.5078 52.9178 23.7844 53.4369 24.1004 53.9305C24.8619 53.6188 25.5943 53.2368 26.2884 52.7892C26.8393 52.4746 27.35 52.0912 27.8089 51.6478C28.4913 50.9287 28.6953 50.1983 29.1922 48.2541C29.8783 45.591 30.2343 44.2365 30.2566 43.8028C30.3625 42.3971 30.2952 40.9834 30.0563 39.595C29.9545 39.035 29.8182 38.4823 29.6484 37.94C29.2805 36.8798 28.8457 35.8453 28.3467 34.8431C28.0945 34.3219 27.49 33.093 27.0709 32.4158L26.8633 32.0011C26.6927 31.7005 26.3552 31.1032 26.1216 30.6885C25.658 29.9504 25.1017 29.1058 24.6938 28.3449C24.6196 28.2041 24.5306 28.0215 24.4824 27.9226C24.2599 27.4623 23.9372 26.7204 23.7815 26.3551C23.5182 25.735 23.5367 25.754 23.2549 25.0958C23.1585 24.8714 22.8655 24.2132 22.6578 23.749C22.4798 23.3686 22.0904 22.4669 21.879 21.9723C21.8568 21.9266 21.8382 21.8886 21.8123 21.8239C21.3635 20.7548 20.9704 19.8113 20.5996 18.6433C20.4688 18.2563 20.3574 17.8626 20.2658 17.4639C20.0929 16.7368 19.98 15.9961 19.9283 15.2496C19.8981 14.5509 19.9267 13.8508 20.0136 13.1571C20.1181 12.5853 20.2669 12.023 20.4586 11.4755C20.7146 10.7151 21.1284 10.0206 21.6713 9.44009C21.8601 9.25674 22.0635 9.09002 22.2795 8.94169C22.5561 8.72146 22.8637 8.5457 23.1918 8.42047C23.4487 8.33442 23.7203 8.30461 23.9892 8.33296L24.1004 8.34438Z" fill="#C48DFF" stroke="black" stroke-width="0.2" stroke-miterlimit="10"/>
<path d="M23.8965 46.2265C24.4305 46.2531 24.9645 46.2874 25.4949 46.3292C26.0252 46.3711 26.5629 46.4167 27.0932 46.4244C27.6249 46.4542 28.1564 46.3646 28.6508 46.1618C29.1318 45.9277 29.5943 45.6555 30.0341 45.3477L29.3777 45.8461C29.1494 45.9877 28.9129 46.1148 28.6694 46.2265C28.1705 46.439 27.633 46.539 27.0932 46.5195C26.5555 46.5195 26.0252 46.4434 25.4911 46.4015C24.9571 46.3597 24.4305 46.295 23.8965 46.2265Z" fill="black"/>
<path d="M22.6912 49.7685C23.1992 49.8788 23.7147 49.9816 24.2302 50.0424C24.7483 50.0919 25.2697 50.0919 25.7878 50.0424C26.8283 49.9618 27.8529 49.7339 28.8325 49.3652C28.352 49.5725 27.8559 49.7391 27.3491 49.8636C26.8397 49.9905 26.3214 50.0757 25.7989 50.1185C25.2774 50.1579 24.7536 50.1477 24.2339 50.0881C23.7127 50.0204 23.1971 49.9136 22.6912 49.7685Z" fill="black"/>
<path d="M23.5998 52.7397C24.05 52.9239 24.5283 53.0256 25.0127 53.0403C25.2536 53.0486 25.4946 53.032 25.7322 52.9908C25.9704 52.9443 26.2021 52.8676 26.422 52.7626C26.2124 52.895 25.9832 52.9914 25.7433 53.0479C25.4992 53.0979 25.2505 53.1209 25.0016 53.1164C24.5127 53.1003 24.0336 52.9716 23.5998 52.7397Z" fill="black"/>
<path d="M24.4008 42.7452C25.3808 42.7031 26.3564 42.5862 27.3194 42.3951C28.2799 42.1933 29.2226 41.9108 30.1379 41.5505C29.2367 41.9545 28.2971 42.2618 27.3343 42.4674C26.3672 42.6549 25.385 42.7479 24.4008 42.7452Z" fill="black"/>
<path d="M24.475 38.7049C25.3565 38.7245 26.2346 38.588 27.0709 38.3016C27.49 38.176 27.9091 38.0315 28.3281 37.8983C28.7556 37.7935 29.163 37.6161 29.5334 37.3733C29.1767 37.6416 28.7742 37.8391 28.3467 37.9554C27.9276 38.1 27.5123 38.2445 27.0895 38.3739C26.6683 38.5063 26.2382 38.6068 25.8026 38.6744C25.3631 38.7422 24.917 38.7525 24.475 38.7049Z" fill="black"/>
<path d="M23.3995 34.7709C24.1733 34.7401 24.9405 34.6124 25.684 34.3904C26.4237 34.1612 27.1354 33.8459 27.8053 33.4507C27.1584 33.8954 26.4494 34.2367 25.7025 34.4627C24.9557 34.6904 24.1783 34.7944 23.3995 34.7709Z" fill="black"/>
<path d="M21.879 31.4077C22.5846 31.4297 23.2897 31.3516 23.9743 31.1756C24.3192 31.0957 24.6567 30.993 24.9942 30.8865L25.4986 30.7191C25.5843 30.6999 25.665 30.6618 25.7348 30.6072C25.8046 30.5526 25.862 30.4831 25.9028 30.4033C25.8679 30.4848 25.817 30.558 25.7532 30.6182C25.6893 30.6785 25.614 30.7245 25.5319 30.7533L25.009 30.9398C24.6753 31.0615 24.3341 31.1642 23.9892 31.2517C23.3001 31.4302 22.5859 31.483 21.879 31.4077Z" fill="black"/>
<path d="M20.4364 28.2651C21.0817 28.1129 21.7344 27.9912 22.3871 27.8656C22.7134 27.8047 23.0435 27.7591 23.3587 27.6716C23.68 27.6003 23.9755 27.4382 24.2117 27.2036C23.993 27.4667 23.7023 27.6563 23.3773 27.7477C23.0546 27.8466 22.7246 27.8922 22.4019 27.9607C21.7455 28.0558 21.0928 28.1738 20.4364 28.2651Z" fill="black"/>
<path d="M19.3906 25.2786C20.0097 25.2597 20.6229 25.1495 21.2114 24.9514C21.7951 24.7382 22.3468 24.4424 22.8506 24.0725C22.3721 24.4863 21.8242 24.8073 21.2337 25.0198C20.6408 25.2247 20.0154 25.3125 19.3906 25.2786Z" fill="black"/>
<path d="M18.2224 21.5425C18.4964 21.61 18.7756 21.6533 19.0568 21.6719C19.3374 21.6822 19.618 21.654 19.8912 21.5882C20.4429 21.4582 20.9637 21.2163 21.4229 20.8767C21.2062 21.067 20.9684 21.2304 20.7145 21.3637C20.4602 21.4984 20.1896 21.5982 19.9098 21.6604C19.6292 21.727 19.3404 21.75 19.0531 21.7289C18.7702 21.6997 18.4914 21.6371 18.2224 21.5425Z" fill="black"/>
<path d="M17.592 18.164C17.8134 18.276 18.0495 18.3542 18.2929 18.3961C18.5419 18.4102 18.7915 18.3885 19.0346 18.3314C19.5127 18.2047 19.95 17.9515 20.3029 17.5972C20.1406 17.7923 19.9521 17.9626 19.7429 18.1032C19.5299 18.2427 19.2954 18.3443 19.0494 18.4037C18.8062 18.4593 18.556 18.476 18.3077 18.4532C18.0536 18.4035 17.8108 18.3055 17.592 18.164Z" fill="black"/>
<path d="M17.3694 14.8275C17.578 14.9104 17.7942 14.9716 18.0147 15.0101C18.2351 15.0322 18.4573 15.022 18.6748 14.9797C19.113 14.8938 19.5249 14.7021 19.8764 14.4204C19.7134 14.5807 19.53 14.7176 19.3313 14.8275C19.128 14.935 18.9107 15.0119 18.686 15.0558C18.46 15.0938 18.2296 15.0938 18.0036 15.0558C17.7829 15.0104 17.5694 14.9335 17.3694 14.8275Z" fill="black"/>
<path d="M17.6513 12.0044C18.0393 12.2509 18.4743 12.4091 18.927 12.4686C19.1527 12.4914 19.38 12.4914 19.6057 12.4686C19.8303 12.4244 20.0493 12.3542 20.2584 12.2593C20.0575 12.3807 19.84 12.4704 19.6131 12.5256C19.3827 12.5523 19.1501 12.5523 18.9196 12.5256C18.4594 12.4699 18.0217 12.2901 17.6513 12.0044Z" fill="black"/>
<path d="M18.8566 9.42871C19.0816 9.77385 19.3747 10.0668 19.7169 10.2885C20.065 10.5012 20.4485 10.6457 20.848 10.7146C20.4353 10.6963 20.0337 10.572 19.6799 10.3532C19.5023 10.2432 19.3422 10.1059 19.2052 9.94613C19.0707 9.78738 18.9538 9.61385 18.8566 9.42871Z" fill="black"/>
<path d="M20.7701 7.53784C20.8309 7.89782 20.976 8.23728 21.1929 8.52703C21.4192 8.80891 21.7114 9.02748 22.0422 9.16239C21.6827 9.071 21.363 8.85952 21.1336 8.56127C20.9123 8.26683 20.7853 7.90931 20.7701 7.53784Z" fill="black"/>
<path d="M36.2385 18.9668C36.2385 18.6891 36.2644 18.4076 36.2792 18.1298C36.2792 18.0614 36.2792 17.9624 36.2792 17.9092L36.2347 18.7462C36.2347 18.8185 36.2347 18.9136 36.2347 18.9668H36.2385Z" fill="#231F20"/>
<path d="M36.2607 18.0728C36.355 18.118 36.4424 18.1769 36.5203 18.2478C36.5841 18.3139 36.6256 18.3992 36.6389 18.4913V18.3771C36.6389 18.3391 36.6389 18.301 36.6389 18.263C36.6256 18.1709 36.5841 18.0856 36.5203 18.0195C36.4424 17.9487 36.355 17.8897 36.2607 17.8445V18.0385C36.2607 18.0385 36.2607 18.069 36.2607 18.0728Z" fill="#231F20"/>
<path d="M25.2797 12.4915C25.1355 13.2441 25.123 14.017 25.2426 14.7742C25.0242 14.0277 25.0372 13.2301 25.2797 12.4915Z" fill="#231F20"/>
<path d="M29.9005 21.4511C29.7569 21.3028 29.6523 21.1195 29.5964 20.9185C29.7401 21.0668 29.8447 21.25 29.9005 21.4511Z" fill="#231F20"/>
<path d="M25.6246 8.42822C26.7035 8.69715 27.8224 8.75267 28.9215 8.59182C27.8296 8.85827 26.6864 8.80154 25.6246 8.42822Z" fill="black"/>
<path d="M31.5879 6.9939C30.9873 7.75469 30.1579 8.28985 29.2293 8.51572C29.6711 8.35088 30.0949 8.13921 30.4939 7.88416C30.8905 7.63118 31.2575 7.33248 31.5879 6.9939Z" fill="black"/>
<path d="M31.6027 51.7012C31.3538 51.563 31.0823 51.4727 30.8017 51.4349C30.6086 51.405 30.4116 51.4166 30.2232 51.4691L30.086 51.5186C29.7819 51.648 29.4481 51.9257 29.4963 52.0855C29.5243 52.1377 29.5669 52.1802 29.6187 52.2072C29.6667 52.2393 29.7193 52.2637 29.7744 52.2795C29.971 52.3366 30.2788 52.1768 30.5162 52.1311C30.7352 52.0967 30.9593 52.1326 31.1577 52.2338L31.6027 51.7012Z" fill="white"/>
<path d="M31.6844 51.6784C31.4312 51.5212 31.1456 51.4272 30.8506 51.4041C30.5555 51.3809 30.2593 51.4293 29.9858 51.5452C29.8518 51.6114 29.727 51.6959 29.615 51.7963C29.5445 51.861 29.4444 51.9561 29.4407 52.0626C29.437 52.1692 29.5742 52.2415 29.6558 52.2795C29.7745 52.3248 29.9041 52.3315 30.0266 52.2985C30.1972 52.2605 30.3567 52.1844 30.5236 52.1578C30.7217 52.133 30.9225 52.1674 31.1021 52.2567C31.1245 52.263 31.1481 52.2635 31.1707 52.2582C31.1934 52.2529 31.2144 52.2419 31.2319 52.2262L31.6844 51.6974C31.714 51.6632 31.5768 51.6974 31.5546 51.6974L31.1021 52.2262L31.2356 52.1958C31.0228 52.0941 30.7856 52.0584 30.5532 52.0931C30.2937 52.1387 30.0044 52.3366 29.7522 52.1996C29.6706 52.1539 29.5594 52.0893 29.5853 51.9827C29.6347 51.8673 29.7176 51.7703 29.8227 51.705C30.0669 51.5121 30.372 51.4186 30.6793 51.4425C30.985 51.4719 31.2816 51.5651 31.5508 51.7164C31.5694 51.7469 31.6844 51.686 31.6844 51.6784Z" fill="#231F20"/>
<path d="M21.8975 57.7922C21.2749 57.4752 20.6993 57.0691 20.1879 56.5861C19.7021 56.122 19.3387 55.5589 18.1223 53.3332C17.4567 52.1554 16.8862 50.9237 16.4163 49.6504C16.0607 48.6304 15.8121 47.5744 15.6746 46.5003C15.4874 44.6674 15.465 42.8207 15.6079 40.9836C15.6064 40.3759 15.6901 39.7712 15.8563 39.1879C15.9405 38.8969 16.0829 38.6272 16.2744 38.3959C16.466 38.1646 16.7026 37.977 16.9689 37.8449C17.4506 37.6734 17.9758 37.6815 18.4523 37.8677C19.0885 38.0634 19.6273 38.5019 19.958 39.0928C20.2268 39.7537 20.3313 40.4727 20.2621 41.1853C20.2361 43.3349 20.288 43.9093 20.34 44.2023C20.3659 44.324 20.3882 44.4192 20.3956 44.4572C20.6737 45.6518 21.0446 45.979 21.3598 46.9454C21.4867 47.3707 21.5797 47.8058 21.6379 48.2465C21.7789 49.1178 21.7752 49.6086 21.816 50.0004C21.9346 51.119 22.4649 51.9408 22.9804 52.7283C23.7781 53.9459 24.8572 54.9419 26.1216 55.6274C26.063 55.6016 25.9999 55.5884 25.9361 55.5884C25.8724 55.5884 25.8093 55.6016 25.7507 55.6274C25.6818 55.6651 25.6228 55.7194 25.5789 55.7857C25.5349 55.852 25.5074 55.9282 25.4985 56.0078C25.2932 55.9073 25.058 55.8923 24.8421 55.966C24.7337 56.0021 24.6339 56.0611 24.549 56.139C24.464 56.217 24.3959 56.3122 24.3489 56.4187C24.2278 56.377 24.0998 56.3605 23.9724 56.3703C23.845 56.3801 23.7208 56.416 23.6072 56.4758C23.3862 56.605 23.2237 56.8182 23.1547 57.0693C22.8698 56.9854 22.5647 57.0125 22.2981 57.1454C22.2313 57.1796 21.853 57.3813 21.8716 57.6514C21.8687 57.6998 21.8777 57.7482 21.8975 57.7922Z" fill="url(#paint2_radial_74_637)"/>
<path d="M21.8976 57.678C20.9837 57.2359 20.1901 56.5695 19.5872 55.7377C18.8547 54.6022 18.1885 53.4233 17.592 52.2071C16.7337 50.6149 16.1195 48.8967 15.7711 47.1128C15.553 45.7975 15.466 44.4628 15.5115 43.1294C15.5077 42.124 15.5597 41.1193 15.6672 40.12C15.6914 39.7483 15.7874 39.3853 15.9498 39.0522C16.1121 38.7191 16.3376 38.4224 16.6129 38.1797C17.2545 37.6965 18.0963 37.7992 18.7935 38.1302C19.1396 38.2828 19.446 38.5164 19.6882 38.8124C19.9303 39.1084 20.1015 39.4585 20.1879 39.8346C20.3771 40.6678 20.2695 41.5809 20.2732 42.437C20.2484 43.0609 20.2757 43.6858 20.3548 44.305C20.4857 44.9573 20.7054 45.5874 21.0075 46.1768C21.2897 46.7692 21.4894 47.3993 21.6009 48.0487C21.727 48.8096 21.7492 49.5477 21.8568 50.2934C22.0162 51.134 22.3529 51.9287 22.8432 52.6217C23.665 53.9251 24.7921 54.9964 26.1216 55.7377V55.5094C26.063 55.4837 25.9999 55.4704 25.9362 55.4704C25.8724 55.4704 25.8093 55.4837 25.7507 55.5094C25.6135 55.5817 25.6135 55.7339 25.5171 55.8062C25.4207 55.8784 25.5838 55.8366 25.3799 55.8404C25.2024 55.8043 25.0197 55.8043 24.8421 55.8404C24.6419 55.9089 24.5677 56.0497 24.4157 56.1676C24.2636 56.2855 24.3823 56.2741 24.1449 56.2475C23.972 56.2308 23.7979 56.2632 23.6416 56.341C23.4853 56.4188 23.3528 56.5391 23.2586 56.6888C23.2275 56.7727 23.1903 56.8541 23.1473 56.9323C23.0067 56.9291 22.8665 56.9138 22.7283 56.8867C22.4457 56.9047 22.1804 57.0326 21.9866 57.2443C21.9241 57.3365 21.8852 57.4434 21.8735 57.5551C21.8619 57.6668 21.8778 57.7797 21.9198 57.8834C21.8976 57.815 21.9421 57.7236 21.9198 57.6552L21.879 57.5144V57.7427C21.9384 57.2215 22.5874 57.1187 22.9916 57.1263C23.1028 57.1263 23.1103 57.1682 23.177 57.1263C23.2141 57.0585 23.2475 56.9887 23.2771 56.9171C23.3543 56.8005 23.4553 56.7027 23.5732 56.6304C23.6911 56.5581 23.8229 56.5131 23.9595 56.4986C24.0522 56.4986 24.1857 56.5442 24.2673 56.5214C24.3489 56.4986 24.3786 56.4339 24.4898 56.3122C24.5896 56.208 24.7128 56.1306 24.8486 56.0868C24.9845 56.043 25.1287 56.0342 25.2686 56.0611C25.2686 56.0611 25.4837 56.1372 25.4911 56.1333C25.4986 56.1295 25.5171 56.004 25.5356 55.9812C25.5871 55.8738 25.6753 55.7897 25.7834 55.7448C25.8914 55.6999 26.0118 55.6974 26.1216 55.7377C26.0993 55.7377 26.1475 55.5208 26.1216 55.5094C24.8934 54.8349 23.8386 53.8714 23.0435 52.6978C22.564 52.0443 22.1954 51.3124 21.9532 50.5331C21.8306 49.8591 21.7489 49.1781 21.7084 48.4938C21.6306 47.7508 21.4534 47.0224 21.1818 46.329C20.8698 45.6953 20.6129 45.0345 20.4142 44.3545C20.1509 43.2131 20.2844 41.9994 20.2844 40.8505C20.3288 40.214 20.2232 39.5758 19.9766 38.99C19.784 38.6527 19.5237 38.3612 19.2129 38.135C18.9022 37.9087 18.5481 37.7527 18.1742 37.6775C17.8026 37.5736 17.4086 37.5911 17.0471 37.7274C16.6855 37.8638 16.3743 38.1123 16.1568 38.4384C15.7708 39.1323 15.5807 39.9227 15.6079 40.7211C15.53 42.163 15.4707 43.6164 15.5337 45.0621C15.6095 46.9664 16.0178 48.8413 16.739 50.5977C17.475 52.3145 18.343 53.9683 19.335 55.5436C19.9631 56.5595 20.8542 57.3762 21.9087 57.9025C21.8679 57.8911 21.9309 57.6932 21.8976 57.678Z" fill="black"/>
<path d="M18.8491 48.8897C18.9455 49.118 19.0828 49.3729 19.3646 49.4185C19.4617 49.4337 19.5605 49.4337 19.6576 49.4185C19.9112 49.3982 20.1608 49.3418 20.3993 49.2511C20.5135 49.2114 20.6172 49.145 20.7021 49.0572C20.7871 48.9694 20.851 48.8626 20.8888 48.7451" fill="#1B1464"/>
<path d="M18.8492 49.0151C18.9113 49.189 19.0175 49.3427 19.157 49.4602C19.365 49.564 19.6041 49.5817 19.8245 49.5097C20.2176 49.4564 20.8036 49.3271 20.9074 48.8591C20.9259 48.7868 20.9074 48.6993 20.9074 48.6309C20.8036 49.0988 20.2176 49.2282 19.8245 49.2814C19.608 49.3499 19.3746 49.335 19.1681 49.2396C19.0214 49.1234 18.9107 48.9662 18.8492 48.7868C18.8788 48.8515 18.8232 48.9504 18.8492 49.0151Z" fill="black"/>
<path d="M18.9122 47.2232C19.0328 47.106 19.1759 47.0157 19.3322 46.9581C19.4886 46.9004 19.655 46.8767 19.8208 46.8884C19.973 46.8989 20.1202 46.9483 20.249 47.032C20.3779 47.1157 20.4844 47.2312 20.5588 47.3678" fill="#1B1464"/>
<path d="M18.9122 47.3374C19.3535 46.896 20.2547 46.8466 20.5736 47.4667C20.568 47.4289 20.568 47.3904 20.5736 47.3526C20.5736 47.326 20.5736 47.2651 20.5736 47.2384C20.2547 46.6183 19.3535 46.6678 18.9122 47.1091C18.9122 47.1091 18.9122 47.2042 18.9122 47.2232C18.9122 47.2423 18.9122 47.326 18.9122 47.3374Z" fill="black"/>
<path d="M19.6613 48.1859C19.871 48.2711 20.1023 48.2826 20.3191 48.2185C20.5358 48.1545 20.7258 48.0186 20.8592 47.832" fill="#1B1464"/>
<path d="M19.6613 48.3C19.8705 48.3886 20.1029 48.4019 20.3204 48.3376C20.538 48.2734 20.7279 48.1354 20.8592 47.9462C20.8647 47.9084 20.8647 47.8699 20.8592 47.8321V47.7484C20.8573 47.737 20.8573 47.7254 20.8592 47.7141C20.7279 47.9033 20.538 48.0413 20.3204 48.1056C20.1029 48.1698 19.8705 48.1566 19.6613 48.0679C19.665 48.1059 19.665 48.1441 19.6613 48.1821C19.6576 48.22 19.6576 48.2583 19.6613 48.2962V48.3Z" fill="black"/>
<path d="M19.1829 45.3018C19.589 45.548 19.9535 45.8602 20.2621 46.2263L19.1829 45.3018Z" fill="#1B1464"/>
<path d="M19.1829 45.416C19.5884 45.6647 19.9527 45.9781 20.2621 46.3443V46.3101V46.1503C20.2621 46.1503 20.2621 46.1199 20.2621 46.1161C19.9527 45.7498 19.5884 45.4365 19.1829 45.1877C19.1866 45.2257 19.1866 45.2639 19.1829 45.3019C19.1829 45.3019 19.1829 45.4122 19.1829 45.416Z" fill="black"/>
<path d="M25.3391 55.9243C25.4207 56.1245 25.5239 56.3146 25.6469 56.4912L25.7767 56.7004L26.6667 56.6433C26.6369 56.4409 26.5872 56.242 26.5184 56.0498C26.4601 55.8034 26.3309 55.5807 26.1475 55.4107C26.0241 55.3114 25.8704 55.2602 25.7136 55.2661C25.5891 55.3179 25.4848 55.4106 25.417 55.5297C25.3492 55.6488 25.3218 55.7875 25.3391 55.9243Z" fill="white"/>
<path d="M25.2686 55.9433C25.2943 56.0423 25.3384 56.1353 25.3984 56.2172C25.4985 56.3922 25.606 56.5634 25.7099 56.7346C25.7191 56.7393 25.7293 56.7418 25.7396 56.7418C25.7498 56.7418 25.76 56.7393 25.7692 56.7346L26.6593 56.6776C26.6964 56.6776 26.7446 56.6471 26.7372 56.6053C26.7083 56.4026 26.6586 56.2036 26.5888 56.0118C26.5323 55.819 26.4418 55.6384 26.3218 55.4791C26.2178 55.3532 26.0797 55.2619 25.925 55.2166C25.8447 55.1873 25.7578 55.1825 25.6749 55.2027C25.592 55.223 25.5165 55.2674 25.4577 55.3307C25.3871 55.4103 25.3337 55.5044 25.3011 55.6067C25.2685 55.709 25.2574 55.8172 25.2686 55.9243C25.2686 55.9927 25.4169 55.9585 25.4095 55.8862C25.3975 55.7826 25.4109 55.6775 25.4485 55.5805C25.486 55.4835 25.5466 55.3977 25.6246 55.3307C25.7655 55.2318 25.9954 55.3612 26.0993 55.4525C26.2542 55.6001 26.367 55.7882 26.4256 55.9965C26.505 56.2049 26.561 56.4219 26.5925 56.6433L26.6704 56.571L25.7841 56.6281L25.8434 56.6471C25.7396 56.4835 25.6357 56.3161 25.5393 56.1487C25.4798 56.0707 25.4357 55.9815 25.4095 55.8862C25.3984 55.8367 25.2537 55.8748 25.2686 55.9433Z" fill="#231F20"/>
<path d="M25.8546 56.8222C25.904 56.9382 25.9597 57.0513 26.0215 57.1608L24.742 57.3625C24.6746 57.3096 24.6179 57.2437 24.5751 57.1684C24.5299 57.0641 24.4765 56.9636 24.4157 56.8679V56.8489C24.347 56.7569 24.2982 56.651 24.2726 56.5381C24.2471 56.4253 24.2453 56.3081 24.2673 56.1945C24.3159 56.0455 24.4136 55.9184 24.5435 55.8351C24.6734 55.7518 24.8275 55.7175 24.9794 55.738C25.124 55.7798 25.2353 55.8217 25.2612 55.8331C25.3855 55.9055 25.4901 56.0089 25.5653 56.1336C25.685 56.3521 25.7819 56.5829 25.8546 56.8222Z" fill="white"/>
<path d="M25.7841 56.8409C25.8337 56.958 25.8894 57.0724 25.951 57.1834L26.0326 57.1301L24.7531 57.3317H24.8087C24.7162 57.2531 24.6436 57.1526 24.5974 57.0388C24.5343 56.9056 24.4416 56.7915 24.386 56.6583C24.3121 56.489 24.3041 56.2971 24.3637 56.1219C24.4028 56.0038 24.479 55.9024 24.5804 55.8335C24.6817 55.7647 24.8025 55.7323 24.9237 55.7414C25.029 55.7637 25.1312 55.7995 25.2278 55.848C25.3316 55.9092 25.4194 55.9954 25.4837 56.0991C25.6095 56.3266 25.7102 56.5678 25.7841 56.8181C25.7841 56.8562 25.9398 56.8181 25.9287 56.7763C25.8583 56.6127 25.8138 56.4415 25.747 56.2741C25.6898 56.142 25.6107 56.021 25.5134 55.9164C25.4034 55.8083 25.2658 55.7345 25.1166 55.7034C24.9782 55.6558 24.8285 55.6558 24.6901 55.7034C24.5622 55.7416 24.4473 55.8155 24.3582 55.917C24.2691 56.0185 24.2094 56.1435 24.1857 56.2779C24.1691 56.4453 24.2028 56.6138 24.2821 56.7611C24.3303 56.8562 24.3971 56.9399 24.4416 57.0388C24.4861 57.1377 24.5009 57.1643 24.5417 57.2252C24.5726 57.269 24.6088 57.3086 24.6493 57.3432C24.6901 57.3774 24.7123 57.3736 24.7642 57.366L25.1685 57.3013L26.0103 57.1719C26.0103 57.1719 26.1067 57.1453 26.0919 57.1187C26.0316 57.0076 25.9771 56.8933 25.9287 56.7763C25.9102 56.7611 25.7692 56.8067 25.7841 56.8409Z" fill="#231F20"/>
<path d="M24.8236 57.7923C24.7816 57.4497 24.6878 57.116 24.5454 56.8031C24.3563 56.3846 24.2154 56.3123 24.1746 56.2895C24.0418 56.245 23.9 56.237 23.7634 56.2664C23.6267 56.2958 23.4999 56.3615 23.3958 56.4569C23.302 56.526 23.2246 56.616 23.1693 56.7201C23.1141 56.8241 23.0825 56.9397 23.0768 57.058C23.1266 57.2963 23.2582 57.5083 23.4477 57.6553C23.5141 57.7294 23.586 57.7981 23.6628 57.8608L24.8236 57.7923Z" fill="white"/>
<path d="M24.894 57.7732C24.846 57.3615 24.72 56.9635 24.5232 56.6014C24.4788 56.4832 24.4003 56.3817 24.2983 56.3103C24.1963 56.239 24.0755 56.2012 23.9521 56.2019C23.7973 56.2107 23.6461 56.2533 23.5086 56.3267C23.3711 56.4002 23.2505 56.5029 23.1547 56.628C23.0493 56.7523 22.9925 56.9122 22.9953 57.077C23.0326 57.283 23.1357 57.4703 23.2883 57.6096C23.367 57.7075 23.4566 57.7956 23.5553 57.8721C23.5961 57.9025 23.6257 57.8949 23.6776 57.8949H23.8853L24.7865 57.8417C24.8125 57.8417 24.8718 57.8417 24.8829 57.8036C24.894 57.7656 24.8829 57.7618 24.8458 57.7656L23.6665 57.8303H23.7036C23.5824 57.7281 23.4707 57.6148 23.3698 57.4917C23.2591 57.3838 23.1817 57.2448 23.1473 57.0922C23.1381 56.9737 23.1593 56.8549 23.2088 56.7474C23.2582 56.64 23.3342 56.5476 23.4292 56.4796C23.5204 56.3869 23.6364 56.324 23.7625 56.299C23.8886 56.2739 24.0191 56.2878 24.1375 56.3389C24.2973 56.475 24.4168 56.6542 24.4824 56.8563C24.6138 57.1602 24.7025 57.4817 24.7457 57.8112C24.7568 57.8569 24.9015 57.8226 24.894 57.7732Z" fill="#231F20"/>
<path d="M21.7455 58.0204C21.7826 58.1802 22.1905 58.3019 23.6776 58.184C23.6172 58.0023 23.5336 57.8296 23.4292 57.6704C23.3079 57.4202 23.1043 57.2221 22.8544 57.1111C22.732 57.0643 22.6003 57.0492 22.471 57.0671C22.3416 57.0851 22.2185 57.1354 22.1126 57.2138C21.9746 57.3544 21.8759 57.5305 21.8271 57.7236C21.764 57.872 21.7307 57.9557 21.7455 58.0204Z" fill="white"/>
<path d="M21.6713 58.0204C21.7195 58.1878 21.9865 58.2145 22.1201 58.2335C22.6355 58.2867 23.1548 58.2867 23.6702 58.2335C23.6962 58.2335 23.7629 58.2031 23.7481 58.165C23.6496 57.8765 23.5014 57.6084 23.3105 57.3737C23.2282 57.2654 23.1238 57.1769 23.0047 57.1145C22.8855 57.052 22.7544 57.0172 22.6207 57.0123C22.4912 57.0017 22.3611 57.0248 22.2425 57.0793C22.1239 57.1338 22.0206 57.218 21.942 57.3242C21.8689 57.4443 21.808 57.5718 21.7603 57.7047C21.7051 57.8005 21.6745 57.9092 21.6713 58.0204C21.6713 58.0813 21.8271 58.0471 21.816 57.9824C21.8247 57.8735 21.8577 57.768 21.9124 57.6742C21.9502 57.5649 21.9973 57.4592 22.0533 57.3585C22.1206 57.2561 22.2164 57.1771 22.3282 57.1316C22.4401 57.0861 22.5627 57.0763 22.68 57.1036C22.7964 57.1276 22.9068 57.1758 23.0043 57.2451C23.1019 57.3145 23.1846 57.4035 23.2474 57.5068C23.4027 57.7128 23.5276 57.9409 23.6183 58.184L23.6999 58.1156C23.2073 58.1716 22.7105 58.1792 22.2165 58.1384C22.1052 58.1384 21.8456 58.1041 21.816 57.9824C21.7974 57.9215 21.6713 57.9634 21.6713 58.0204Z" fill="#231F20"/>
<path d="M27.438 17.1823C27.438 17.2165 27.4937 17.2013 27.5196 17.1823C27.55 17.1649 27.5785 17.1445 27.6049 17.1214L27.7459 16.9882C27.8386 16.8969 27.9276 16.8056 28.0129 16.7067C28.1025 16.6154 28.1856 16.5175 28.2613 16.4137C28.3418 16.3136 28.3932 16.1923 28.4097 16.0637C28.4204 16.1986 28.385 16.3332 28.3096 16.4442C28.2375 16.5546 28.1569 16.659 28.0685 16.7562C27.9779 16.8511 27.8825 16.9413 27.7829 17.0263C27.7333 17.0699 27.6813 17.1105 27.6272 17.148C27.6018 17.1675 27.5745 17.1841 27.5456 17.1975C27.4974 17.2127 27.4455 17.2203 27.438 17.1823Z" fill="black"/>
<path d="M34.0374 10.1496C34.0512 9.19364 33.307 8.4072 32.3752 8.39302C31.4434 8.37884 30.6768 9.14228 30.663 10.0982C30.6491 11.0542 31.3933 11.8406 32.3251 11.8548C33.2569 11.869 34.0235 11.1055 34.0374 10.1496Z" fill="white" stroke="black" stroke-width="0.2" stroke-miterlimit="10"/>
<path d="M32.1183 11.3879C32.7798 11.3879 33.3161 10.8377 33.3161 10.159C33.3161 9.48036 32.7798 8.93018 32.1183 8.93018C31.4567 8.93018 30.9204 9.48036 30.9204 10.159C30.9204 10.8377 31.4567 11.3879 32.1183 11.3879Z" fill="#FF00FF"/>
<path d="M32.1182 10.901C32.5176 10.901 32.8414 10.5689 32.8414 10.1591C32.8414 9.74939 32.5176 9.41724 32.1182 9.41724C31.7188 9.41724 31.3951 9.74939 31.3951 10.1591C31.3951 10.5689 31.7188 10.901 32.1182 10.901Z" fill="black"/>
<path d="M31.6844 10.0414C31.7063 10.0358 31.7291 10.0349 31.7515 10.0386C31.7738 10.0423 31.7951 10.0507 31.8142 10.0631C31.8333 10.0756 31.8497 10.0919 31.8624 10.1111C31.8752 10.1302 31.884 10.1518 31.8883 10.1746C31.8984 10.2205 31.8904 10.2686 31.8661 10.3084C31.8418 10.3483 31.8031 10.3768 31.7585 10.3876C31.7165 10.3912 31.6745 10.3791 31.6405 10.3534C31.6066 10.3276 31.5828 10.2901 31.5738 10.2478C31.5647 10.2055 31.5709 10.1613 31.5913 10.1233C31.6116 10.0853 31.6447 10.0562 31.6844 10.0414Z" fill="white"/>
<path d="M28.7316 12.6233C29.5954 12.2645 30.0122 11.2553 29.6625 10.3691C29.3128 9.48293 28.329 9.05537 27.4652 9.41413C26.6014 9.77289 26.1846 10.7821 26.5343 11.6683C26.884 12.5545 27.8678 12.982 28.7316 12.6233Z" fill="white" stroke="black" stroke-width="0.2" stroke-miterlimit="10"/>
<path d="M28.3282 12.1946C28.9897 12.1946 29.526 11.6444 29.526 10.9657C29.526 10.287 28.9897 9.73682 28.3282 9.73682C27.6666 9.73682 27.1303 10.287 27.1303 10.9657C27.1303 11.6444 27.6666 12.1946 28.3282 12.1946Z" fill="#FF00FF"/>
<path d="M28.3281 11.7077C28.7275 11.7077 29.0513 11.3755 29.0513 10.9658C29.0513 10.556 28.7275 10.2239 28.3281 10.2239C27.9287 10.2239 27.605 10.556 27.605 10.9658C27.605 11.3755 27.9287 11.7077 28.3281 11.7077Z" fill="black"/>
<path d="M28.6805 10.6993C28.6579 10.7026 28.6363 10.7104 28.6168 10.7223C28.5972 10.7343 28.5802 10.7501 28.5668 10.7689C28.5533 10.7877 28.5436 10.8091 28.5383 10.8317C28.533 10.8544 28.5321 10.878 28.5358 10.901C28.539 10.9241 28.5466 10.9463 28.5583 10.9663C28.5699 10.9863 28.5853 11.0038 28.6037 11.0176C28.622 11.0314 28.6428 11.0414 28.6649 11.0468C28.687 11.0523 28.7099 11.0531 28.7324 11.0494C28.7774 11.0418 28.8178 11.0165 28.8448 10.9788C28.8719 10.9411 28.8834 10.8941 28.877 10.8477C28.8739 10.8246 28.8662 10.8024 28.8546 10.7824C28.8429 10.7623 28.8275 10.7449 28.8092 10.7311C28.7909 10.7172 28.77 10.7073 28.7479 10.7019C28.7258 10.6964 28.7029 10.6956 28.6805 10.6993Z" fill="white"/>
<g clip-path="url(#clip0_74_637)">
<path d="M10.9115 49.3198L7.56626 48.4253L11.1002 52.802L10.9115 49.3198Z" fill="#424143"/>
<path d="M10.8811 43.3423L11.1925 48.9622L14.4248 47.6416L10.8811 43.3423Z" fill="#424143"/>
<path d="M10.5619 43.3807L7.528 48.1061L10.8831 48.9232L10.5619 43.3807Z" fill="#424143"/>
<path d="M11.2308 49.2813L11.4968 52.7733L14.4533 48.0381L11.2308 49.2813Z" fill="#424143"/>
</g>
<defs>
<radialGradient id="paint0_radial_74_637" cx="0" cy="0" r="1" gradientUnits="userSpaceOnUse" gradientTransform="translate(26.9152 52.1994) scale(2.86669 2.94092)">
<stop stop-color="#F175AD"/>
<stop offset="1" stop-color="#FFB93A"/>
</radialGradient>
<radialGradient id="paint1_radial_74_637" cx="0" cy="0" r="1" gradientUnits="userSpaceOnUse" gradientTransform="translate(21.8271 29.0754) scale(22.0769 22.6485)">
<stop stop-color="#FFE800"/>
<stop offset="0.12" stop-color="#FEE00C"/>
<stop offset="0.33" stop-color="#FCCB2B"/>
<stop offset="0.62" stop-color="#F7A95E"/>
<stop offset="0.96" stop-color="#F27BA4"/>
<stop offset="1" stop-color="#F175AD"/>
</radialGradient>
<radialGradient id="paint2_radial_74_637" cx="0" cy="0" r="1" gradientUnits="userSpaceOnUse" gradientTransform="translate(584.971 2507.17) scale(224.961 425.69)">
<stop stop-color="#F175AD"/>
<stop offset="1" stop-color="#FFB93A"/>
</radialGradient>
<clipPath id="clip0_74_637">
<rect width="9.35738" height="6.86208" fill="white" transform="translate(14.9813 43.8606) rotate(97.204)"/>
</clipPath>
</defs>
</svg>
