<svg width="119" height="103" viewBox="0 0 119 103" fill="none" xmlns="http://www.w3.org/2000/svg">
<g filter="url(#filter0_d_6_1671)">
<path d="M104 19.7882C100.647 21.2716 97.0989 22.2583 93.4663 22.7176C97.3212 20.3939 100.185 16.7094 101.504 12.3769C97.9092 14.5061 93.9856 16.0112 89.897 16.8296C87.3873 14.1907 84.1553 12.3671 80.6139 11.5916C77.0725 10.8162 73.3825 11.1242 70.0153 12.4763C66.6482 13.8284 63.7568 16.1632 61.7106 19.1823C59.6644 22.2014 58.5563 25.7678 58.5279 29.4259C58.5121 30.833 58.6483 32.2376 58.9341 33.6149C51.6561 33.2792 44.5312 31.3904 38.0289 28.073C31.5265 24.7557 25.7943 20.085 21.21 14.3689C19.5601 17.1803 18.6882 20.3873 18.6854 23.655C18.6944 26.6849 19.44 29.6663 20.8566 32.3375C22.2733 35.0087 24.3177 37.2881 26.8106 38.9756C23.9204 38.9014 21.0916 38.1171 18.5693 36.6907V36.8958C18.5643 41.1354 20.0032 45.248 22.6449 48.544C25.2865 51.84 28.9702 54.1191 33.0786 54.9993C31.5262 55.4162 29.9259 55.6231 28.3195 55.6145C27.1605 55.6276 26.0033 55.5196 24.8663 55.2922C26.0468 58.9609 28.3296 62.1675 31.3977 64.4668C34.4658 66.766 38.167 68.0439 41.9873 68.1229C35.521 73.2149 27.5538 75.9783 19.3528 75.9736C17.8985 75.9848 16.4449 75.9065 15 75.7393C23.3416 81.1558 33.0557 84.0244 42.9739 84.0001C76.5484 84.0001 94.9172 55.9074 94.9172 31.5936C94.9172 30.7734 94.9172 29.9824 94.9172 29.1915C98.4736 26.6261 101.549 23.442 104 19.7882Z" fill="#FE056B"/>
</g>
<defs>
<filter id="filter0_d_6_1671" x="0" y="0.173584" width="119" height="102.827" filterUnits="userSpaceOnUse" color-interpolation-filters="sRGB">
<feFlood flood-opacity="0" result="BackgroundImageFix"/>
<feColorMatrix in="SourceAlpha" type="matrix" values="0 0 0 0 0 0 0 0 0 0 0 0 0 0 0 0 0 0 127 0" result="hardAlpha"/>
<feOffset dy="4"/>
<feGaussianBlur stdDeviation="7.5"/>
<feComposite in2="hardAlpha" operator="out"/>
<feColorMatrix type="matrix" values="0 0 0 0 1 0 0 0 0 0 0 0 0 0 0.48 0 0 0 0.5 0"/>
<feBlend mode="normal" in2="BackgroundImageFix" result="effect1_dropShadow_6_1671"/>
<feBlend mode="normal" in="SourceGraphic" in2="effect1_dropShadow_6_1671" result="shape"/>
</filter>
</defs>
</svg>
