<svg width="48" height="41" viewBox="0 0 48 41" fill="none" xmlns="http://www.w3.org/2000/svg">
<path d="M35.7985 12.8053C35.3492 12.56 34.8439 12.4314 34.3302 12.4314C33.8166 12.4314 33.3113 12.56 32.862 12.8053L26.1227 16.6539L21.5525 19.1616L14.8032 23.0078C14.3545 23.2551 13.849 23.3849 13.3349 23.3849C12.8208 23.3849 12.3153 23.2551 11.8666 23.0078L6.50854 20.0025C6.07294 19.7566 5.70908 19.4042 5.45209 18.9793C5.19511 18.5544 5.05369 18.0714 5.04151 17.5769V11.636C5.03579 11.1378 5.16973 10.6478 5.42857 10.2198C5.68742 9.79182 6.06113 9.44253 6.50854 9.2104L11.7807 6.28474C12.2294 6.03743 12.7349 5.90758 13.249 5.90758C13.7631 5.90758 14.2687 6.03743 14.7173 6.28474L19.987 9.2104C20.4227 9.45634 20.7868 9.80872 21.0442 10.2336C21.3016 10.6584 21.4436 11.1414 21.4565 11.636V15.4822L26.0344 12.8899V9.05616C26.0401 8.55799 25.9061 8.06792 25.6473 7.63994C25.3885 7.21196 25.0148 6.86268 24.5673 6.63055L14.8032 1.09518C14.3545 0.84787 13.849 0.718018 13.3349 0.718018C12.8208 0.718018 12.3153 0.84787 11.8666 1.09518L1.93072 6.61811C1.48071 6.85064 1.10506 7.20168 0.8456 7.63214C0.586138 8.0626 0.453052 8.55557 0.461165 9.05616V20.1766C0.455398 20.6751 0.589593 21.1655 0.848929 21.5935C1.10826 22.0216 1.48265 22.3707 1.93072 22.6023L11.8666 28.1202C12.3153 28.3675 12.8208 28.4974 13.3349 28.4974C13.849 28.4974 14.3545 28.3675 14.8032 28.1202L21.5525 24.3462L26.1227 21.744L32.862 17.9799C33.3113 17.7347 33.8166 17.606 34.3302 17.606C34.8439 17.606 35.3492 17.7347 35.7985 17.9799L41.0682 20.9081C41.5041 21.1532 41.8684 21.5051 42.1258 21.9296C42.3832 22.3541 42.5251 22.8368 42.5378 23.3312V29.2696C42.5433 29.7677 42.409 30.2576 42.1497 30.6853C41.8904 31.1129 41.5161 31.4615 41.0682 31.6927L35.7985 34.7029C35.3499 34.9503 34.8444 35.0801 34.3302 35.0801C33.8161 35.0801 33.3106 34.9503 32.862 34.7029L27.5898 31.7773C27.1542 31.5314 26.7903 31.179 26.5333 30.7541C26.2763 30.3292 26.1349 29.8461 26.1227 29.3517V25.5155L21.5525 28.1078V31.944C21.5464 32.4425 21.6805 32.933 21.9399 33.3611C22.1992 33.7892 22.5738 34.1382 23.022 34.3696L32.9478 39.9049C33.3965 40.1523 33.902 40.2821 34.4161 40.2821C34.9302 40.2821 35.4357 40.1523 35.8844 39.9049L45.8203 34.387C46.2562 34.1412 46.6204 33.7889 46.8778 33.364C47.1352 32.9391 47.2771 32.456 47.2898 31.9614V20.8409C47.295 20.3425 47.1606 19.8524 46.9013 19.4244C46.642 18.9965 46.268 18.6473 45.8203 18.4153L35.7985 12.8053Z" fill="#8247E5"/>
</svg>
